<svg width="284" height="285" viewBox="0 0 284 285" fill="none" xmlns="http://www.w3.org/2000/svg">
<path d="M182.774 247.218V266.564C182.774 276.722 174.862 285 165.154 285H118.903C109.165 285 101.254 276.722 101.254 266.564V247.218C101.254 237.03 109.165 228.752 118.903 228.752H165.154C174.863 228.752 182.774 237.03 182.774 247.218ZM266.351 76.2608H220.1C210.363 76.2608 202.452 84.539 202.452 94.7273V114.012C202.452 124.171 210.363 132.449 220.1 132.449H266.351C276.088 132.449 284 124.171 284 114.012V94.7273C283.999 84.5384 276.088 76.2608 266.351 76.2608ZM266.351 152.491H220.1C210.363 152.491 202.452 160.769 202.452 170.957V190.273C202.452 200.461 210.363 208.739 220.1 208.739H266.351C276.088 208.739 284 200.461 284 190.273V170.957C283.999 160.769 276.088 152.491 266.351 152.491ZM266.351 228.752H220.1C210.363 228.752 202.452 237.03 202.452 247.218V266.564C202.452 276.722 210.363 285 220.1 285H266.351C276.088 285 284 276.722 284 266.564V247.218C283.999 237.03 276.088 228.752 266.351 228.752ZM63.929 228.752H17.6193C7.91101 228.752 0 237.03 0 247.218V266.564C0 276.722 7.91156 285 17.6193 285H63.929C73.6661 285 81.5777 276.722 81.5777 266.564V247.218C81.5771 237.03 73.6661 228.752 63.929 228.752ZM165.155 0H118.903C109.166 0 101.254 8.27815 101.254 18.4665V37.7214C101.254 47.9097 109.166 56.1879 118.903 56.1879H165.155C174.863 56.1879 182.774 47.9097 182.774 37.7214V18.4665C182.774 8.27815 174.863 0 165.155 0ZM63.929 152.491H17.6193C7.91101 152.491 0 160.769 0 170.957V190.273C0 200.461 7.91156 208.739 17.6193 208.739H63.929C73.6661 208.739 81.5777 200.461 81.5777 190.273V170.957C81.5771 160.769 73.6661 152.491 63.929 152.491ZM165.155 76.2608H118.903C109.166 76.2608 101.254 84.539 101.254 94.7273V114.012C101.254 124.171 109.166 132.449 118.903 132.449H165.155C174.863 132.449 182.774 124.171 182.774 114.012V94.7273C182.774 84.5384 174.863 76.2608 165.155 76.2608ZM165.155 152.491H118.903C109.166 152.491 101.254 160.769 101.254 170.957V190.273C101.254 200.461 109.166 208.739 118.903 208.739H165.155C174.863 208.739 182.774 200.461 182.774 190.273V170.957C182.774 160.769 174.863 152.491 165.155 152.491Z" fill="url(#paint0_linear_203_406)"/>
<defs>
<linearGradient id="paint0_linear_203_406" x1="33.3886" y1="309.119" x2="275.269" y2="77.9501" gradientUnits="userSpaceOnUse">
<stop stop-color="#718DF0" stop-opacity="0.65"/>
<stop offset="1" stop-color="#B2C3FF" stop-opacity="0.29"/>
</linearGradient>
</defs>
</svg>
