<svg width="1054" height="1054" viewBox="0 0 1054 1054" fill="none" xmlns="http://www.w3.org/2000/svg">
<path d="M883.689 670.938C803.846 856.97 593.083 936.878 427.946 923.253C382.857 919.534 292.139 912.048 221.302 845.274C85.2708 717.041 106.22 448.996 236.442 291.186C253.212 270.864 369.291 134.702 550.179 136.526C682.613 137.861 775.57 212.434 786.874 221.724C801.153 233.46 832.645 261.35 861.029 305.595C927.718 409.555 933.582 554.683 883.686 670.935L883.689 670.938Z" fill="url(#paint0_linear_379_969)"/>
<path d="M303.791 914.415C303.796 913.977 303.768 913.537 303.657 913.091C297.06 886.94 264.321 870.652 264.321 870.652L251.349 871.669C243.889 894.718 244.849 908.855 246.045 915.153C246.079 915.329 246.13 915.497 246.179 915.668C256.88 916.622 278.907 917.247 303.791 914.418V914.415Z" fill="url(#paint1_linear_379_969)"/>
<path d="M246.176 915.666C246.752 917.768 248.307 919.405 250.292 919.822C265.517 923.024 289.711 920.447 299.87 919.121C302.112 918.828 303.751 916.754 303.788 914.416C278.904 917.248 256.878 916.623 246.176 915.666Z" fill="url(#paint2_linear_379_969)"/>
<path d="M246.133 852.346L251.627 878.798C252.031 880.736 253.519 882.187 255.323 882.358C257.531 882.565 260.676 882.687 263.835 882.221C266.67 881.804 268.645 878.923 268.142 875.832L264.324 852.346H246.133Z" fill="url(#paint3_linear_379_969)"/>
<path d="M359.974 915.401C345.647 915.001 338.235 913.313 334.405 911.748C334.397 913.171 334.405 914.623 334.451 916.126C334.499 917.731 335.689 919.012 337.15 919.004L415.819 918.495C418.33 918.478 419.796 915.566 418.708 913.265C408.393 914.117 382.122 916.024 359.974 915.404V915.401Z" fill="url(#paint4_linear_379_969)"/>
<path d="M418.708 913.262C418.614 913.061 418.532 912.859 418.396 912.668C411.447 902.961 393.753 883.631 358.786 875.247L342.013 874.719C342.013 874.719 334.544 887.702 334.402 911.748C338.232 913.313 345.644 915.001 359.971 915.401C382.119 916.021 408.39 914.115 418.705 913.262H418.708Z" fill="url(#paint5_linear_379_969)"/>
<path d="M338.902 849.295C339.09 850.545 341.388 869.548 342.277 876.918C342.488 878.668 343.758 880.023 345.357 880.213C348.215 880.554 352.834 880.864 356.88 880.037C359.062 879.591 360.641 877.494 360.641 875.057V845.227L338.905 849.295H338.902Z" fill="url(#paint6_linear_379_969)"/>
<path d="M325.448 502.492C325.448 502.492 365.906 656.248 365.173 849.735C365.159 853.264 362.682 856.307 359.23 857.034C354.142 858.105 346.667 859.378 340.474 859.204C337.17 859.111 334.408 856.662 333.852 853.403C328.178 820.135 295.624 632.722 277.075 602.295C277.075 602.295 264.87 769.214 268.771 855.812C268.867 857.966 267.291 859.832 265.148 860.079C261.901 860.454 256.705 860.741 250.091 860.037C247.583 859.77 245.557 857.872 245.196 855.375C241.156 827.218 217.897 659.629 218.886 538.902C218.943 532.095 236.889 502.492 236.889 502.492H325.44H325.448Z" fill="url(#paint7_linear_379_969)"/>
<path d="M381.714 316.412C375.148 308.182 369.395 299.357 364.583 290.269C357.864 277.573 364.043 298.488 362.205 284.15C311.88 247.834 236.097 266.215 206.787 269.908C197.176 271.118 188.386 275.857 182.05 283.187C156.933 312.255 101.813 391.84 166.689 472.032C174.991 467.424 186.789 460.034 194.801 451.48C187.624 431.247 187.036 405.391 202.076 373.686C202.591 376.2 203.227 378.686 203.997 381.135C224.73 446.815 225.835 501.473 225.79 514.069C225.784 515.78 226.81 517.32 228.398 517.956C255.686 528.891 308.209 522.382 325.84 519.754C329.073 519.271 331.247 516.263 330.801 513.024C322.147 450.332 366.557 347.199 378.288 321.369C379.131 319.511 380.299 317.838 381.708 316.409L381.714 316.412Z" fill="url(#paint8_linear_379_969)"/>
<path d="M253.95 217.116L248.691 270.844C248.691 270.844 278.916 279.947 300.9 264.438L285.445 215.607L253.95 217.116Z" fill="url(#paint9_linear_379_969)"/>
<path d="M289.021 155.88C289.749 156.565 319.724 215.427 319.724 215.427L285.751 231.828L249.055 180.261C249.055 180.261 276.845 144.419 289.024 155.883L289.021 155.88Z" fill="url(#paint10_linear_379_969)"/>
<path d="M264.082 181.687C263.476 183.255 263.624 185.005 264.488 186.445L281.431 214.69C281.69 215.119 281.994 215.506 282.36 215.846C284.377 217.724 291.278 223.185 296.613 215.75C301.162 209.414 305.426 203.653 310 201.278C312.671 199.889 315.955 200.997 317.31 203.684C320.103 209.218 325.509 220.497 328.907 231.191C329.759 233.87 328.376 236.75 325.768 237.804C318.89 240.591 305.293 245.631 293.227 247.296C291.244 247.569 289.284 246.733 288.105 245.117C282.914 238.006 268.283 218.133 263.292 213.159C258.652 208.537 250.093 210.281 246.235 211.389C244.771 211.809 243.212 211.608 241.905 210.821C237.99 208.463 231.16 202.593 237.408 192.653C238.962 190.181 238.169 186.891 235.731 185.286C231.362 182.411 226.62 177.016 231.138 168.277C235.712 159.43 243.879 158.638 249.442 159.317C251.902 159.618 254.402 158.328 255.346 156.035C255.766 155.016 256.596 154.146 258.141 153.834C261.056 153.243 262.971 150.575 262.397 147.657C261.417 142.652 262.155 136.149 270.147 131.757C284.806 123.697 297.645 136.828 300.909 147.913C304.173 158.999 287.784 166.831 277.477 168.141C269.903 169.101 265.752 177.365 264.082 181.687Z" fill="url(#paint11_linear_379_969)"/>
<path d="M269.654 223.534C269.654 223.534 263.137 204.462 254.793 205.161C246.449 205.86 239.884 214.173 250.222 223.517C263.083 235.139 269.654 223.534 269.654 223.534Z" fill="url(#paint12_linear_379_969)"/>
<path d="M483.869 333.306C426.951 341.846 389.853 305.933 362.208 284.145C325.71 255.384 297.309 269.375 297.309 269.375L336.233 343.661C394.359 398.466 453.957 386.295 491.529 368.537C492.108 354.19 488.273 342.181 483.872 333.306H483.869Z" fill="url(#paint13_linear_379_969)"/>
<path d="M563.87 299.348L544.995 309.504C522.358 323.286 502.099 330.57 483.871 333.306C488.272 342.178 492.107 354.187 491.527 368.537C515.446 357.232 530.44 343.661 530.44 343.661C573.2 318.163 563.87 299.348 563.87 299.348Z" fill="url(#paint14_linear_379_969)"/>
<path d="M446.361 183.061C456.378 167.436 466.683 155.575 483.91 155.981C506.442 156.509 545.281 161.018 547.42 195.078C548.136 206.476 547.966 218.13 545.821 229.451C543.977 239.184 537.999 250.847 546.4 257.801C552.852 263.142 561.031 263.813 567.844 268.171C571.881 270.756 576.969 280.484 576.418 286.523C574.367 309.007 551.682 307.177 552.866 315.254C554.051 323.331 548.409 345.028 529.678 341.726C510.948 338.425 474.271 338.047 467.421 339.039C460.572 340.03 446.509 332.394 454.966 323.294C463.424 314.194 445.097 323.794 442.094 290.788C440.83 276.884 444.208 267.713 452.463 262.551C456.955 259.742 437.548 203.167 441.389 193.044C442.799 189.328 444.472 186.01 446.364 183.058L446.361 183.061Z" fill="url(#paint15_linear_379_969)"/>
<path d="M506 888.151L505.074 907.159C505.48 910.765 508.106 913.617 511.446 914.029C517.083 914.725 529.194 915.438 538.047 914.427C541.933 913.983 544.453 909.731 543.271 905.705C541.112 898.367 537.166 887.352 531.475 880.869H511.966C508.358 880.869 505.566 884.278 506 888.151Z" fill="url(#paint16_linear_379_969)"/>
<path d="M443.327 599.672L443.972 683.969C443.972 683.969 455.89 804.699 458.012 852.99C458.344 860.561 456.387 868.044 452.412 874.496L431.688 908.15L484.359 877.07L485.407 870.641L476.785 858.785L488.078 723.538C488.743 715.592 487.101 707.626 483.356 700.589L495.766 609.567L443.327 599.672Z" fill="url(#paint17_linear_379_969)"/>
<path d="M428.214 913.028H445.024C448.169 913.028 451.138 911.585 453.056 909.091C458.295 902.281 469.153 888.997 474.343 888.65C481.332 888.184 480.437 913.028 480.437 913.028H484.355L489.318 882.155C490.565 874.388 486.704 866.692 479.727 863.053C479.727 863.053 478.13 874.866 469.468 880.093C460.806 885.317 434.22 904.034 434.22 904.034C434.22 904.034 430.964 903.568 427.388 904.216C422.084 905.173 422.825 913.028 428.214 913.028Z" fill="url(#paint18_linear_379_969)"/>
<path d="M545.218 608.985L532.312 697.774C532.312 697.774 548.662 737.678 544.556 774.253C540.451 810.828 523.479 869.465 523.479 869.465C523.479 869.465 541.255 892.335 526.351 895.188C511.448 898.04 503.851 890.409 509.55 874.858L495.766 596.07L545.218 608.985Z" fill="url(#paint19_linear_379_969)"/>
<path d="M537.375 463.951C537.375 463.951 559.126 507.687 559.126 541.862C559.126 564.132 534.699 700.635 534.699 700.635C534.699 700.635 485.82 712.138 445.351 701.922C445.351 701.922 426.825 557.961 430.555 533.895C435.444 502.352 458.851 459.184 458.851 459.184L537.375 463.954V463.951Z" fill="url(#paint20_linear_379_969)"/>
<path d="M324.37 403.228C324.37 403.228 314.836 398.245 313.557 385.548C311.492 365.037 317.62 370.417 317.856 370.815C320.259 374.841 327.416 398.963 324.37 403.228Z" fill="url(#paint21_linear_379_969)"/>
<path d="M390.654 405.611C362.932 398.994 340.812 393.98 337.812 391.968C331.971 388.051 352.446 337.186 338.119 341.325C323.792 345.465 318.417 387.471 322.738 401.517C323.536 404.111 331.999 410.858 376.054 427.785C383.768 421.989 393.069 413.75 390.654 405.611Z" fill="url(#paint22_linear_379_969)"/>
<path d="M483.645 295.771C446.289 293.069 433.732 336.783 433.732 336.783C427.056 385.423 438.565 391.142 426.738 402.909C422.033 407.591 396.28 403.216 379.762 401.083C378.603 400.932 377.577 401.784 377.469 402.946C376.719 410.898 380.149 419.907 374.594 426.279C373.842 427.143 374.086 428.489 375.12 428.981C395.18 438.487 438.792 444.044 451.693 437.563C491.04 417.799 483.642 295.774 483.642 295.774L483.645 295.771Z" fill="url(#paint23_linear_379_969)"/>
<path d="M476.968 296.408C467.65 297.871 464.533 296.57 456.883 305.431C447.729 316.034 446.766 327.247 440.783 343.219L437.433 356.182C436.465 359.938 436.428 363.873 437.334 367.643L460.119 462.679C460.119 462.679 472.156 481.017 536.419 465.858L543.095 438.516C544.947 432.599 562.087 371.225 562.49 365.037L569.362 324.591C571.905 309.63 560.791 295.809 545.632 295.084C519.759 293.851 500.409 292.726 476.966 296.408H476.968Z" fill="url(#paint24_linear_379_969)"/>
<path d="M539.74 456.4C511.788 461.755 523.43 449.653 505.632 445.289C487.833 440.925 466.543 467.653 483 466.207C492.6 465.363 502.742 470.849 509.527 475.565C514.723 479.179 521.243 480.292 527.314 478.503C537.314 475.551 554.616 471.713 577.593 471.423C571.988 461.923 567.338 458.224 562.809 448.056C557.806 452.067 545.982 455.204 539.74 456.4Z" fill="url(#paint25_linear_379_969)"/>
<path d="M563.465 306.845C544.428 288.64 529.944 306.402 534.748 339.965C535.43 344.738 537.354 349.258 540.237 353.122C577.764 403.407 574.133 433.297 558.533 447.368C557.652 448.163 557.377 449.445 557.885 450.519C561.846 458.874 567.067 466.579 571.866 474.428C572.945 476.195 575.175 476.911 577.07 476.073C593.136 468.976 605.824 455.851 606.318 432.146C607.696 366.074 563.468 306.842 563.468 306.842L563.465 306.845Z" fill="url(#paint26_linear_379_969)"/>
<path d="M491.214 232.881L517.609 295.811C517.609 295.811 486.668 314.34 470.745 305.499L461.469 241.211L491.214 232.881Z" fill="url(#paint27_linear_379_969)"/>
<path d="M449.304 193.698C449.304 193.698 431.281 259.126 458.947 266.061C486.615 272.996 499.467 226.48 499.467 226.48C499.467 226.48 497.652 194.954 485.135 188.625C472.617 182.295 449.304 193.696 449.304 193.696V193.698Z" fill="url(#paint28_linear_379_969)"/>
<path d="M456.536 177.864C456.536 177.864 445.655 188.99 447.525 195.913C449.394 202.836 472.73 195.598 478.485 192.325L497.764 212.845C497.764 212.845 497.173 182.447 483.872 173.086C470.57 163.725 456.536 177.862 456.536 177.862V177.864Z" fill="url(#paint29_linear_379_969)"/>
<path d="M490.887 225.301C490.887 225.301 499.18 203.315 508.907 212.096C518.634 220.878 502.921 235.915 494.483 232.949L490.887 225.304V225.301Z" fill="url(#paint30_linear_379_969)"/>
<path d="M552.829 294.254C552.829 294.254 548.331 304.533 555.718 308.064C563.104 311.595 570.812 336.647 575.309 332.15C579.806 327.652 587.835 298.748 552.829 294.254Z" fill="url(#paint31_linear_379_969)"/>
<path d="M194.803 451.479C186.791 460.03 174.993 467.422 166.691 472.03C179.089 487.354 195.865 502.701 218.073 517.724L224.428 531.989L244.793 507.579C244.793 507.579 208.249 489.394 194.8 451.481L194.803 451.479Z" fill="url(#paint32_linear_379_969)"/>
<path d="M244.795 507.576C244.795 507.576 263.452 513.372 259.957 516.866C256.466 520.358 257.551 523.196 258.971 525.381C260.392 527.562 267.378 532.366 263.886 537.168C260.395 541.969 240.747 556.813 239.874 554.194C239.002 551.574 223.553 535.443 220.908 524.082C218.263 512.718 244.795 507.576 244.795 507.576Z" fill="url(#paint33_linear_379_969)"/>
<path d="M564.222 602.004C564.308 602.009 564.393 602.009 564.478 602.009L675.753 601.887C678.503 601.887 680.731 599.651 680.728 596.901C680.728 594.148 678.483 591.875 675.742 591.927L564.467 592.049C561.717 592.049 559.489 594.285 559.492 597.035C559.495 599.7 561.592 601.873 564.222 602.004Z" fill="url(#paint34_linear_379_969)"/>
<path d="M775.779 500.973H683.11C676.274 500.973 670.05 504.919 667.135 511.101L624.293 601.944H739.457C743.864 601.944 747.821 599.253 749.441 595.154L782.663 511.092C784.583 506.234 781.004 500.973 775.779 500.973Z" fill="url(#paint35_linear_379_969)"/>
<path d="M459.352 912.751C458.557 912.751 457.747 912.598 456.969 912.274C453.906 910.998 452.491 907.561 453.81 904.595L580.426 619.631C581.741 616.668 585.293 615.299 588.358 616.571C591.421 617.847 592.835 621.285 591.517 624.25L464.901 909.214C463.918 911.424 461.691 912.751 459.352 912.751Z" fill="#7D97F4"/>
<path d="M601.994 912.751C599.653 912.751 597.429 911.427 596.446 909.214L469.829 624.25C468.511 621.284 469.926 617.847 472.988 616.571C476.048 615.295 479.602 616.665 480.92 619.631L607.537 904.594C608.855 907.56 607.44 910.998 604.378 912.273C603.599 912.597 602.789 912.751 601.994 912.751Z" fill="#7D97F4"/>
<path d="M766.403 912.751C765.608 912.751 764.798 912.598 764.02 912.274C760.957 910.998 759.542 907.561 760.86 904.595L887.477 619.631C888.795 616.668 892.341 615.299 895.409 616.571C898.471 617.847 899.886 621.285 898.568 624.25L771.952 909.214C770.969 911.424 768.741 912.751 766.403 912.751Z" fill="#7D97F4"/>
<path d="M909.045 912.751C906.704 912.751 904.479 911.427 903.496 909.214L776.88 624.25C775.562 621.284 776.977 617.847 780.039 616.571C783.099 615.295 786.653 616.665 787.971 619.631L914.588 904.594C915.906 907.56 914.491 910.998 911.428 912.273C910.65 912.597 909.84 912.751 909.045 912.751Z" fill="#7D97F4"/>
<path d="M925.342 610.832C925.606 608.963 925.245 607.031 924.362 605.562C923.478 604.094 922.16 603.244 920.771 603.244H450.062C448.235 603.244 446.533 604.52 445.547 606.631C444.562 608.739 444.431 611.392 445.198 613.665L450.298 628.79C451.465 632.253 453.997 634.472 456.781 634.472H917.541C920.132 634.472 922.359 631.955 922.85 628.469L925.342 610.835V610.832Z" fill="#7D97F4"/>
<path d="M716.788 840.276L721.092 904.959C721.842 916.238 731.416 924.906 742.769 924.582L897.863 920.175C905.451 919.96 911.724 914.227 912.573 906.718C914.437 890.283 916.522 860.916 912.102 833.574L716.785 840.276H716.788Z" fill="url(#paint36_linear_379_969)"/>
<path d="M747.143 920.755C746.907 920.755 746.711 920.568 746.705 920.329C746.699 920.087 746.89 919.886 747.131 919.88L750.628 919.781C750.915 919.747 751.072 919.965 751.077 920.207C751.083 920.448 750.893 920.65 750.651 920.656L747.154 920.755H747.143ZM758.805 920.423C758.569 920.423 758.373 920.235 758.367 919.997C758.362 919.755 758.552 919.553 758.793 919.548L762.291 919.448C762.549 919.428 762.734 919.633 762.74 919.874C762.745 920.116 762.555 920.318 762.313 920.323L758.816 920.423H758.805ZM770.467 920.09C770.231 920.09 770.035 919.903 770.029 919.664C770.024 919.423 770.214 919.221 770.456 919.215L773.953 919.116C774.214 919.13 774.396 919.3 774.402 919.542C774.407 919.783 774.217 919.985 773.976 919.991L770.478 920.09H770.467ZM782.129 919.761C781.893 919.761 781.697 919.573 781.692 919.335C781.686 919.093 781.876 918.891 782.118 918.886L785.615 918.786C785.865 918.786 786.058 918.971 786.064 919.212C786.07 919.454 785.879 919.656 785.638 919.661L782.141 919.761H782.129ZM739.106 919.684C739.057 919.684 739.009 919.675 738.963 919.661C737.841 919.272 736.745 918.783 735.705 918.207C735.495 918.09 735.418 917.823 735.534 917.613C735.651 917.4 735.918 917.323 736.128 917.443C737.125 917.997 738.174 918.465 739.248 918.837C739.475 918.917 739.597 919.164 739.517 919.394C739.455 919.573 739.285 919.687 739.103 919.687L739.106 919.684ZM793.789 919.428C793.553 919.428 793.357 919.241 793.351 919.002C793.345 918.761 793.536 918.559 793.777 918.553L797.274 918.454C797.51 918.445 797.718 918.639 797.723 918.88C797.729 919.121 797.539 919.323 797.297 919.329L793.8 919.428H793.789ZM805.451 919.096C805.215 919.096 805.019 918.908 805.013 918.67C805.008 918.428 805.198 918.227 805.439 918.221L808.937 918.121C809.192 918.102 809.38 918.306 809.385 918.548C809.391 918.789 809.201 918.991 808.959 918.997L805.462 919.096H805.451ZM817.113 918.764C816.877 918.764 816.681 918.576 816.675 918.337C816.67 918.096 816.86 917.894 817.101 917.889L820.599 917.789C820.877 917.758 821.042 917.974 821.048 918.215C821.053 918.457 820.863 918.658 820.621 918.664L817.124 918.764H817.113ZM828.775 918.431C828.539 918.431 828.343 918.244 828.338 918.005C828.332 917.764 828.522 917.562 828.764 917.556L832.261 917.457C832.537 917.434 832.704 917.641 832.71 917.883C832.716 918.124 832.525 918.326 832.284 918.332L828.786 918.431H828.775ZM840.434 918.099C840.199 918.099 840.003 917.911 839.997 917.673C839.991 917.431 840.182 917.229 840.423 917.224L843.92 917.124C844.204 917.139 844.364 917.309 844.369 917.55C844.375 917.792 844.185 917.994 843.943 917.999L840.446 918.099H840.434ZM852.097 917.766C851.861 917.766 851.665 917.579 851.659 917.34C851.653 917.099 851.844 916.897 852.085 916.891L855.582 916.792C855.852 916.815 856.026 916.977 856.031 917.218C856.037 917.46 855.847 917.661 855.605 917.667L852.108 917.766H852.097ZM863.759 917.434C863.523 917.434 863.327 917.246 863.321 917.008C863.316 916.766 863.506 916.565 863.747 916.559L867.245 916.46C867.529 916.471 867.688 916.644 867.694 916.886C867.699 917.127 867.509 917.329 867.267 917.335L863.77 917.434H863.759ZM875.418 917.102C875.182 917.102 874.986 916.914 874.981 916.675C874.975 916.434 875.165 916.232 875.407 916.227L878.904 916.127C879.185 916.11 879.347 916.312 879.353 916.553C879.359 916.795 879.168 916.996 878.927 917.002L875.429 917.102H875.418ZM887.08 916.772C886.844 916.772 886.648 916.585 886.643 916.346C886.637 916.104 886.827 915.903 887.069 915.897L890.566 915.798C890.799 915.769 891.009 915.982 891.015 916.224C891.021 916.465 890.83 916.667 890.589 916.673L887.092 916.772H887.08ZM898.629 915.641C898.453 915.641 898.285 915.533 898.22 915.36C898.134 915.136 898.248 914.883 898.473 914.798C899.532 914.397 900.541 913.866 901.473 913.227C901.672 913.09 901.944 913.141 902.081 913.337C902.217 913.536 902.169 913.809 901.97 913.945C900.981 914.627 899.91 915.19 898.785 915.616C898.734 915.636 898.683 915.644 898.629 915.644V915.641ZM729.77 912.971C729.639 912.971 729.509 912.914 729.423 912.8C728.693 911.857 728.046 910.846 727.494 909.795C727.381 909.582 727.466 909.317 727.679 909.204C727.895 909.09 728.159 909.175 728.27 909.388C728.798 910.394 729.421 911.363 730.117 912.263C730.264 912.454 730.23 912.729 730.037 912.877C729.958 912.94 729.864 912.968 729.77 912.968V912.971ZM906.822 907.786C906.765 907.786 906.706 907.775 906.652 907.752C906.43 907.658 906.325 907.4 906.422 907.178C906.865 906.138 907.18 905.045 907.359 903.925C907.396 903.687 907.621 903.527 907.859 903.562C908.098 903.598 908.26 903.823 908.223 904.062C908.032 905.249 907.697 906.414 907.228 907.516C907.157 907.684 906.995 907.783 906.825 907.783L906.822 907.786ZM725.656 902.232C725.429 902.232 725.239 902.059 725.222 901.829L724.989 898.331C724.972 898.09 725.156 897.882 725.395 897.865C725.634 897.837 725.844 898.033 725.861 898.275L726.094 901.76C726.111 902.002 725.932 902.212 725.69 902.229C725.679 902.229 725.668 902.229 725.656 902.229V902.232ZM908.638 896.311C908.638 896.311 908.612 896.311 908.598 896.311C908.356 896.289 908.18 896.078 908.2 895.837C908.302 894.712 908.402 893.55 908.496 892.354C908.515 892.112 908.731 891.933 908.967 891.953C909.209 891.973 909.388 892.183 909.368 892.425C909.271 893.624 909.172 894.789 909.072 895.916C909.052 896.144 908.862 896.314 908.638 896.314V896.311ZM724.884 890.593C724.656 890.593 724.463 890.413 724.449 890.183L724.216 886.692C724.199 886.45 724.384 886.243 724.622 886.226C724.867 886.197 725.071 886.394 725.088 886.635L725.321 890.127C725.338 890.368 725.153 890.575 724.915 890.593C724.906 890.593 724.895 890.593 724.886 890.593H724.884ZM909.481 884.675C909.481 884.675 909.464 884.675 909.456 884.675C909.214 884.663 909.03 884.456 909.044 884.215C909.106 883.07 909.163 881.908 909.214 880.726C909.223 880.484 909.45 880.291 909.669 880.305C909.91 880.317 910.098 880.521 910.086 880.76C910.035 881.945 909.979 883.112 909.916 884.26C909.905 884.493 909.711 884.675 909.479 884.675H909.481ZM724.111 878.953C723.884 878.953 723.69 878.774 723.676 878.544L723.443 875.052C723.426 874.811 723.611 874.604 723.849 874.586C724.085 874.561 724.298 874.754 724.315 874.993L724.548 878.484C724.565 878.726 724.381 878.933 724.142 878.95C724.134 878.95 724.122 878.95 724.114 878.95L724.111 878.953ZM909.896 873.018H909.89C909.649 873.013 909.456 872.817 909.459 872.575C909.479 871.422 909.49 870.257 909.496 869.078C909.496 868.836 909.74 868.62 909.936 868.643C910.177 868.643 910.373 868.842 910.371 869.084C910.365 870.263 910.354 871.433 910.334 872.589C910.331 872.828 910.135 873.021 909.896 873.021V873.018ZM723.335 867.314C723.108 867.314 722.915 867.135 722.901 866.904L722.668 863.413C722.651 863.171 722.835 862.964 723.074 862.947C723.313 862.921 723.523 863.115 723.54 863.353L723.773 866.845C723.79 867.086 723.605 867.294 723.367 867.311C723.358 867.311 723.347 867.311 723.338 867.311L723.335 867.314ZM909.842 861.353C909.606 861.353 909.41 861.166 909.405 860.927C909.373 859.771 909.336 858.606 909.288 857.438C909.277 857.197 909.467 856.992 909.709 856.984C909.925 856.984 910.152 857.163 910.163 857.404C910.211 858.578 910.251 859.745 910.28 860.907C910.285 861.149 910.095 861.35 909.854 861.356H909.842V861.353ZM722.563 855.674C722.335 855.674 722.142 855.495 722.128 855.265L721.895 851.771C721.878 851.529 722.063 851.322 722.301 851.305C722.543 851.282 722.75 851.472 722.767 851.714L723 855.205C723.017 855.447 722.832 855.654 722.594 855.671C722.585 855.671 722.574 855.671 722.565 855.671L722.563 855.674ZM909.251 849.705C909.024 849.705 908.834 849.532 908.817 849.302C908.728 848.146 908.629 846.984 908.521 845.822C908.498 845.58 908.675 845.367 908.916 845.344C909.16 845.324 909.371 845.498 909.393 845.739C909.501 846.904 909.601 848.069 909.692 849.234C909.709 849.475 909.53 849.685 909.288 849.702C909.277 849.702 909.265 849.702 909.254 849.702L909.251 849.705ZM721.79 844.032C721.562 844.032 721.369 843.853 721.355 843.623L721.094 839.682L724.867 839.552C725.142 839.56 725.31 839.733 725.318 839.975C725.327 840.216 725.136 840.418 724.895 840.427L722.026 840.523L722.227 843.563C722.244 843.805 722.06 844.012 721.821 844.029C721.813 844.029 721.801 844.029 721.793 844.029L721.79 844.032ZM733.04 840.145C732.804 840.145 732.611 839.961 732.603 839.722C732.594 839.481 732.784 839.279 733.026 839.27L736.523 839.151C736.801 839.14 736.966 839.333 736.975 839.574C736.983 839.816 736.793 840.018 736.552 840.026L733.054 840.145H733.04ZM744.697 839.745C744.461 839.745 744.268 839.56 744.259 839.322C744.251 839.08 744.441 838.878 744.682 838.87L748.18 838.75C748.435 838.745 748.623 838.932 748.631 839.174C748.64 839.415 748.449 839.617 748.208 839.625L744.711 839.745H744.697ZM756.356 839.344C756.12 839.344 755.927 839.16 755.918 838.921C755.91 838.679 756.1 838.478 756.342 838.469L759.839 838.347C760.1 838.353 760.282 838.529 760.291 838.77C760.299 839.012 760.109 839.214 759.867 839.222L756.37 839.344H756.356ZM768.015 838.944C767.779 838.944 767.586 838.759 767.578 838.52C767.569 838.279 767.76 838.077 768.001 838.069L771.498 837.949C771.763 837.938 771.941 838.131 771.95 838.373C771.958 838.614 771.768 838.816 771.527 838.824L768.029 838.944H768.015ZM779.675 838.543C779.439 838.543 779.246 838.358 779.237 838.12C779.229 837.878 779.419 837.677 779.66 837.668L783.158 837.549C783.425 837.577 783.601 837.731 783.609 837.972C783.618 838.214 783.427 838.415 783.186 838.424L779.689 838.543H779.675ZM791.334 838.142C791.098 838.142 790.905 837.958 790.896 837.719C790.888 837.478 791.078 837.276 791.32 837.268L794.817 837.148C795.09 837.157 795.26 837.33 795.269 837.571C795.277 837.813 795.087 838.015 794.845 838.023L791.348 838.142H791.334ZM908.024 838.103C907.808 838.103 907.62 837.944 907.592 837.725C907.433 836.571 907.265 835.421 907.081 834.273C907.044 834.034 907.206 833.81 907.444 833.773C907.677 833.739 907.907 833.898 907.944 834.137C908.126 835.29 908.297 836.449 908.459 837.608C908.493 837.847 908.325 838.069 908.084 838.1C908.064 838.103 908.044 838.106 908.024 838.106V838.103ZM802.993 837.745C802.757 837.745 802.564 837.56 802.556 837.321C802.547 837.08 802.738 836.878 802.979 836.87L806.476 836.75C806.735 836.739 806.92 836.932 806.928 837.174C806.937 837.415 806.746 837.617 806.505 837.625L803.007 837.745H802.993ZM814.653 837.344C814.417 837.344 814.224 837.159 814.215 836.921C814.207 836.679 814.397 836.478 814.638 836.469L818.136 836.347C818.417 836.319 818.579 836.526 818.587 836.77C818.596 837.012 818.405 837.213 818.164 837.222L814.667 837.341H814.653V837.344ZM826.312 836.944C826.076 836.944 825.883 836.759 825.874 836.52C825.866 836.279 826.056 836.077 826.298 836.069L829.795 835.946C830.051 835.961 830.238 836.128 830.247 836.37C830.255 836.611 830.065 836.813 829.823 836.821L826.326 836.941H826.312V836.944ZM837.971 836.543C837.736 836.543 837.542 836.358 837.534 836.12C837.525 835.878 837.716 835.677 837.957 835.668L841.454 835.549C841.719 835.54 841.897 835.731 841.906 835.972C841.915 836.213 841.724 836.415 841.483 836.424L837.985 836.543H837.971ZM849.631 836.142C849.395 836.142 849.202 835.958 849.193 835.719C849.185 835.478 849.375 835.276 849.616 835.267L853.114 835.148C853.381 835.12 853.557 835.327 853.565 835.571C853.574 835.813 853.384 836.015 853.142 836.023L849.645 836.142H849.631ZM861.29 835.742C861.054 835.742 860.861 835.557 860.852 835.319C860.844 835.077 861.034 834.875 861.276 834.867L864.773 834.748C865.012 834.748 865.216 834.927 865.225 835.171C865.233 835.412 865.043 835.614 864.801 835.623L861.304 835.742H861.29ZM872.949 835.341C872.714 835.341 872.52 835.157 872.512 834.918C872.503 834.677 872.694 834.475 872.935 834.466L876.432 834.347C876.702 834.338 876.876 834.529 876.884 834.77C876.893 835.012 876.702 835.213 876.461 835.222L872.964 835.341H872.949ZM884.609 834.941C884.373 834.941 884.18 834.756 884.171 834.517C884.163 834.276 884.353 834.074 884.594 834.066L888.092 833.946C888.367 833.926 888.535 834.128 888.543 834.37C888.552 834.611 888.362 834.813 888.12 834.821L884.623 834.944H884.609V834.941ZM896.268 834.54C896.032 834.54 895.839 834.355 895.83 834.117C895.822 833.875 896.012 833.674 896.254 833.665L899.751 833.543C900.029 833.566 900.194 833.725 900.203 833.966C900.211 834.208 900.021 834.409 899.779 834.418L896.282 834.537H896.268V834.54Z" fill="white"/>
<path d="M760.621 791.707L760.917 786.699C761.402 785.489 762.468 784.608 763.752 784.358C768.556 783.423 780.491 781.659 786.409 785.773L787.468 791.546L760.621 791.707Z" fill="url(#paint37_linear_379_969)"/>
<path d="M775.542 786.386C774.44 786.695 773.326 786.732 772.198 786.496C770.837 786.212 769.843 785.036 769.795 783.65L769.258 768.013L777.215 767.74L777.752 783.366C777.801 784.758 776.886 786.008 775.542 786.386Z" fill="url(#paint38_linear_379_969)"/>
<path d="M837.699 789.063L837.995 784.054C838.48 782.844 839.546 781.963 840.83 781.713C845.634 780.779 857.569 779.014 863.487 783.128L864.549 788.901L837.702 789.063H837.699Z" fill="url(#paint39_linear_379_969)"/>
<path d="M852.626 783.742C851.524 784.052 850.407 784.089 849.282 783.853C847.921 783.566 846.927 782.393 846.879 781.006L846.285 763.722L854.243 763.449L854.836 780.722C854.885 782.114 853.97 783.364 852.626 783.742Z" fill="url(#paint40_linear_379_969)"/>
<path d="M768.586 771.875L854.074 766.105C856.023 765.974 857.631 764.508 857.901 762.582C858.279 759.886 858.554 755.86 857.796 751.724C856.932 747.019 852.744 743.647 847.94 743.698C831.963 743.865 791.317 745.272 769.22 754.903C766.882 755.923 765.194 758.005 764.68 760.494C764.189 762.866 763.916 766.019 764.774 769.19C765.228 770.875 766.842 771.991 768.589 771.875H768.586Z" fill="url(#paint41_linear_379_969)"/>
<path d="M766.934 768.267C766.36 768.267 765.86 767.841 765.781 767.259C765.761 767.117 765.321 763.773 766.085 760.506C766.704 757.864 768.699 755.69 771.295 754.829C776.054 753.253 785.162 750.542 792.679 750.074C793.318 750.042 793.875 750.523 793.915 751.165C793.955 751.81 793.466 752.361 792.824 752.4C785.568 752.852 776.682 755.503 772.028 757.043C770.199 757.648 768.789 759.179 768.355 761.034C767.69 763.869 768.088 766.912 768.091 766.943C768.176 767.583 767.727 768.168 767.091 768.256C767.037 768.264 766.985 768.267 766.931 768.267H766.934Z" fill="#91B3FA"/>
<path d="M720.843 791.125C748.48 789.824 868.045 784.463 902.935 787.46C905.938 787.719 908.455 789.824 909.203 792.73C911.575 801.941 916.444 823.359 916.688 844.748C916.723 847.66 914.674 850.186 911.819 850.828L833.025 868.553L804.854 869.519L719.772 855.621C716.772 855.132 714.491 852.683 714.232 849.669C713.315 838.936 711.59 813.736 713.94 797.398C714.44 793.926 717.321 791.287 720.841 791.122L720.843 791.125Z" fill="url(#paint42_linear_379_969)"/>
<path d="M805.296 863.105C805.273 863.105 805.247 863.105 805.225 863.099L801.77 862.536C801.531 862.497 801.369 862.272 801.409 862.033C801.449 861.795 801.67 861.636 801.912 861.673L805.367 862.235C805.605 862.275 805.767 862.499 805.727 862.738C805.693 862.951 805.506 863.105 805.296 863.105ZM810.324 862.931C810.088 862.931 809.895 862.747 809.887 862.508C809.878 862.266 810.068 862.065 810.31 862.056L813.807 861.937C814.051 861.94 814.25 862.116 814.259 862.36C814.267 862.602 814.077 862.803 813.835 862.812L810.338 862.931H810.324ZM821.983 862.531C821.748 862.531 821.554 862.346 821.546 862.107C821.537 861.866 821.728 861.664 821.969 861.656L825.466 861.536C825.728 861.514 825.91 861.718 825.918 861.96C825.927 862.201 825.736 862.403 825.495 862.411L821.998 862.531H821.983ZM833.606 861.854C833.407 861.854 833.225 861.715 833.18 861.514C833.126 861.278 833.273 861.045 833.509 860.991L836.924 860.224C837.16 860.175 837.393 860.318 837.447 860.556C837.501 860.792 837.35 861.025 837.117 861.079L833.702 861.846C833.671 861.852 833.637 861.857 833.606 861.857V861.854ZM793.781 861.221C793.758 861.221 793.733 861.221 793.71 861.215L790.255 860.653C790.017 860.613 789.855 860.389 789.895 860.15C789.934 859.911 790.153 859.755 790.397 859.789L793.852 860.352C794.091 860.391 794.253 860.616 794.213 860.854C794.179 861.068 793.991 861.221 793.781 861.221ZM782.27 859.34C782.247 859.34 782.221 859.34 782.198 859.335L778.744 858.772C778.505 858.732 778.343 858.508 778.383 858.269C778.423 858.031 778.642 857.871 778.886 857.908L782.341 858.471C782.579 858.511 782.741 858.735 782.701 858.974C782.667 859.187 782.48 859.34 782.27 859.34ZM844.987 859.295C844.788 859.295 844.606 859.156 844.561 858.954C844.507 858.718 844.654 858.485 844.89 858.431L848.305 857.661C848.538 857.61 848.774 857.758 848.828 857.994C848.882 858.229 848.734 858.462 848.498 858.516L845.083 859.286C845.052 859.292 845.018 859.298 844.987 859.298V859.295ZM770.755 857.462C770.732 857.462 770.707 857.462 770.684 857.457L767.229 856.891C766.991 856.852 766.829 856.627 766.869 856.388C766.908 856.153 767.136 855.994 767.371 856.028L770.826 856.593C771.065 856.633 771.227 856.857 771.187 857.096C771.153 857.309 770.965 857.462 770.755 857.462ZM856.368 856.735C856.169 856.735 855.987 856.599 855.942 856.394C855.888 856.158 856.035 855.925 856.271 855.871L859.686 855.104C859.925 855.056 860.155 855.198 860.209 855.437C860.263 855.673 860.112 855.905 859.879 855.959L856.464 856.727C856.433 856.732 856.399 856.738 856.368 856.738V856.735ZM759.243 855.582C759.221 855.582 759.195 855.582 759.172 855.576L755.718 855.011C755.479 854.971 755.317 854.746 755.357 854.508C755.397 854.269 755.624 854.113 755.86 854.147L759.314 854.712C759.553 854.752 759.715 854.977 759.675 855.215C759.641 855.428 759.454 855.582 759.243 855.582ZM867.749 854.175C867.55 854.175 867.368 854.036 867.322 853.834C867.268 853.599 867.416 853.366 867.652 853.312L871.067 852.542C871.303 852.491 871.536 852.638 871.59 852.874C871.644 853.11 871.496 853.343 871.26 853.397L867.845 854.167C867.814 854.173 867.78 854.178 867.749 854.178V854.175ZM747.729 853.701C747.706 853.701 747.681 853.701 747.658 853.695L744.203 853.13C743.965 853.09 743.803 852.866 743.843 852.627C743.882 852.388 744.101 852.229 744.345 852.266L747.8 852.832C748.039 852.871 748.201 853.096 748.161 853.334C748.127 853.547 747.939 853.701 747.729 853.701ZM736.217 851.82C736.195 851.82 736.169 851.82 736.146 851.815L732.692 851.252C732.453 851.212 732.291 850.988 732.331 850.749C732.371 850.511 732.592 850.351 732.834 850.388L736.288 850.951C736.527 850.991 736.689 851.215 736.649 851.454C736.615 851.667 736.428 851.82 736.217 851.82ZM879.13 851.613C878.931 851.613 878.749 851.474 878.703 851.272C878.649 851.036 878.797 850.803 879.033 850.749L882.448 849.982C882.678 849.934 882.917 850.076 882.971 850.314C883.025 850.55 882.877 850.783 882.641 850.837L879.226 851.604C879.195 851.61 879.161 851.616 879.13 851.616V851.613ZM724.703 849.939C724.68 849.939 724.655 849.939 724.632 849.934L721.177 849.371C720.939 849.331 720.777 849.107 720.816 848.868C720.856 848.63 721.078 848.468 721.319 848.508L724.774 849.07C725.013 849.11 725.174 849.334 725.135 849.573C725.101 849.786 724.913 849.939 724.703 849.939ZM890.51 849.053C890.312 849.053 890.13 848.914 890.084 848.712C890.03 848.476 890.181 848.243 890.414 848.189L893.829 847.422C894.065 847.371 894.3 847.519 894.351 847.755C894.405 847.991 894.258 848.224 894.022 848.278L890.607 849.045C890.576 849.05 890.542 849.056 890.51 849.056V849.053ZM901.891 846.493C901.693 846.493 901.511 846.354 901.465 846.152C901.411 845.917 901.559 845.684 901.795 845.63L905.21 844.863C905.44 844.814 905.678 844.956 905.732 845.195C905.786 845.431 905.636 845.664 905.403 845.718L901.988 846.485C901.957 846.491 901.923 846.496 901.891 846.496V846.493ZM720.433 841.414C720.206 841.414 720.013 841.235 719.998 841.005C719.924 839.888 719.851 838.72 719.78 837.507C719.765 837.266 719.95 837.059 720.191 837.047C720.441 837.01 720.64 837.218 720.655 837.459C720.726 838.669 720.799 839.837 720.873 840.951C720.89 841.192 720.706 841.4 720.467 841.417C720.459 841.417 720.447 841.417 720.439 841.417L720.433 841.414ZM909.75 841.189C909.517 841.189 909.323 841.005 909.312 840.769C909.267 839.607 909.207 838.442 909.136 837.283C909.122 837.041 909.306 836.834 909.545 836.82C909.772 836.791 909.994 836.987 910.008 837.229C910.079 838.394 910.136 839.564 910.184 840.732C910.193 840.973 910.005 841.175 909.764 841.186H909.747L909.75 841.189ZM719.822 829.757C719.589 829.757 719.393 829.573 719.385 829.337C719.342 828.183 719.302 827.013 719.271 825.834C719.265 825.592 719.456 825.391 719.697 825.385C719.933 825.413 720.14 825.57 720.146 825.811C720.177 826.987 720.217 828.155 720.26 829.306C720.268 829.547 720.081 829.749 719.839 829.76H719.822V829.757ZM908.894 829.555C908.673 829.555 908.482 829.388 908.46 829.163C908.338 827.996 908.204 826.837 908.065 825.692C908.036 825.45 908.207 825.234 908.446 825.203C908.684 825.172 908.903 825.345 908.931 825.584C909.073 826.734 909.204 827.896 909.329 829.07C909.355 829.311 909.178 829.524 908.94 829.55C908.926 829.55 908.909 829.55 908.894 829.55V829.555ZM719.598 818.092C719.356 818.092 719.16 817.896 719.16 817.655C719.16 816.481 719.172 815.311 719.191 814.149C719.197 813.907 719.353 813.689 719.637 813.717C719.879 813.723 720.072 813.919 720.066 814.16C720.047 815.317 720.038 816.484 720.035 817.655C720.035 817.896 719.839 818.092 719.598 818.092ZM907.36 817.987C907.15 817.987 906.963 817.834 906.928 817.618C906.744 816.444 906.551 815.294 906.357 814.172C906.318 813.933 906.477 813.706 906.715 813.666C906.951 813.623 907.181 813.785 907.221 814.021C907.417 815.149 907.61 816.305 907.795 817.481C907.832 817.72 907.67 817.944 907.431 817.981C907.409 817.984 907.386 817.987 907.363 817.987H907.36ZM905.264 806.504C905.062 806.504 904.877 806.362 904.835 806.154C904.587 804.958 904.343 803.816 904.107 802.734C904.056 802.498 904.204 802.265 904.44 802.214C904.676 802.163 904.908 802.311 904.96 802.546C905.198 803.632 905.443 804.777 905.69 805.975C905.738 806.211 905.588 806.444 905.349 806.493C905.32 806.498 905.289 806.501 905.261 806.501L905.264 806.504ZM719.947 806.43C719.947 806.43 719.927 806.43 719.919 806.43C719.677 806.413 719.495 806.206 719.51 805.964C719.586 804.771 719.68 803.6 719.788 802.461C719.811 802.22 720.021 802.046 720.265 802.069C720.507 802.092 720.683 802.305 720.66 802.546C720.552 803.677 720.461 804.836 720.382 806.021C720.368 806.251 720.174 806.43 719.947 806.43ZM724.501 798.237C724.268 798.237 724.075 798.052 724.064 797.819C724.052 797.578 724.24 797.373 724.481 797.362L727.979 797.2C728.211 797.197 728.425 797.376 728.436 797.617C728.447 797.859 728.26 798.063 728.018 798.075L724.521 798.237H724.501ZM736.161 797.708C735.928 797.708 735.734 797.524 735.723 797.291C735.712 797.049 735.899 796.845 736.141 796.833L739.638 796.68C739.851 796.68 740.084 796.856 740.092 797.097C740.104 797.339 739.916 797.543 739.675 797.555L736.178 797.708H736.158H736.161ZM747.82 797.203C747.587 797.203 747.394 797.018 747.382 796.782C747.371 796.541 747.559 796.336 747.8 796.328L751.297 796.18C751.539 796.177 751.743 796.359 751.752 796.6C751.763 796.842 751.576 797.046 751.334 797.055L747.837 797.203H747.817H747.82ZM759.482 796.72C759.249 796.72 759.056 796.535 759.045 796.299C759.033 796.058 759.224 795.853 759.465 795.845L762.965 795.705C763.19 795.714 763.411 795.884 763.42 796.126C763.428 796.367 763.241 796.569 762.999 796.58L759.502 796.72H759.485H759.482ZM771.144 796.262C770.911 796.262 770.715 796.078 770.707 795.842C770.698 795.6 770.886 795.396 771.127 795.387L774.624 795.254C774.897 795.268 775.07 795.433 775.079 795.674C775.088 795.916 774.9 796.12 774.659 796.129L771.161 796.262H771.144ZM782.806 795.828C782.573 795.828 782.377 795.643 782.369 795.407C782.36 795.166 782.548 794.964 782.789 794.952L786.289 794.827C786.528 794.842 786.733 795.006 786.741 795.251C786.75 795.492 786.559 795.694 786.318 795.703L782.821 795.828H782.804H782.806ZM794.469 795.424C794.233 795.424 794.04 795.239 794.031 795.001C794.023 794.759 794.213 794.558 794.454 794.549L797.952 794.433C798.213 794.421 798.395 794.614 798.403 794.856C798.412 795.097 798.222 795.299 797.98 795.308L794.483 795.424H794.469ZM902.653 795.126C902.457 795.126 902.281 794.992 902.229 794.796L902.204 794.697C901.332 794.623 900.397 794.552 899.4 794.489C899.158 794.475 898.977 794.265 898.991 794.023C899.005 793.782 899.232 793.583 899.454 793.614C900.502 793.683 901.479 793.754 902.391 793.833C902.69 793.856 902.94 794.052 903.008 794.319L903.073 794.58C903.133 794.813 902.991 795.052 902.758 795.112C902.721 795.12 902.687 795.126 902.65 795.126H902.653ZM806.128 795.046C805.892 795.046 805.699 794.859 805.69 794.623C805.682 794.381 805.872 794.18 806.114 794.171L809.614 794.066C809.881 794.089 810.057 794.251 810.066 794.492C810.071 794.734 809.884 794.935 809.642 794.941L806.145 795.046H806.131H806.128ZM817.787 794.705C817.552 794.705 817.355 794.518 817.35 794.279C817.344 794.038 817.534 793.836 817.776 793.83L821.276 793.737C821.512 793.745 821.719 793.921 821.725 794.163C821.731 794.404 821.54 794.606 821.299 794.612L817.802 794.705H817.79H817.787ZM829.45 794.404C829.214 794.404 829.018 794.214 829.012 793.978C829.006 793.737 829.197 793.535 829.438 793.529L832.938 793.45H832.947C833.185 793.45 833.379 793.64 833.384 793.879C833.39 794.12 833.197 794.319 832.955 794.325L829.458 794.404H829.447H829.45ZM841.112 794.154C840.873 794.154 840.68 793.964 840.674 793.725C840.669 793.484 840.862 793.285 841.103 793.279L844.603 793.217C844.884 793.248 845.044 793.407 845.049 793.648C845.052 793.89 844.862 794.089 844.62 794.092L841.123 794.154H841.115H841.112ZM891.269 794.109H891.255C890.135 794.075 888.971 794.041 887.76 794.012C887.519 794.006 887.329 793.805 887.334 793.563C887.34 793.322 887.527 793.12 887.783 793.137C888.996 793.166 890.161 793.2 891.283 793.234C891.525 793.242 891.715 793.444 891.707 793.685C891.698 793.921 891.505 794.109 891.269 794.109ZM852.774 793.964C852.535 793.964 852.339 793.771 852.336 793.532C852.333 793.29 852.527 793.092 852.768 793.089C853.953 793.072 855.121 793.058 856.268 793.046H856.274C856.513 793.046 856.709 793.239 856.711 793.478C856.711 793.719 856.521 793.918 856.28 793.921C855.132 793.933 853.964 793.947 852.782 793.964H852.777H852.774ZM879.604 793.876H879.598C878.462 793.864 877.294 793.856 876.101 793.847C875.86 793.847 875.664 793.648 875.666 793.407C875.666 793.166 875.862 792.972 876.104 792.972C877.3 792.978 878.468 792.989 879.607 793.001C879.848 793.001 880.041 793.202 880.039 793.444C880.039 793.685 879.84 793.876 879.601 793.876H879.604ZM864.439 793.85C864.197 793.85 864.001 793.657 864.001 793.416C864.001 793.174 864.195 792.978 864.436 792.975C865.624 792.969 866.791 792.964 867.936 792.961C868.178 792.961 868.374 793.157 868.374 793.398C868.374 793.64 868.178 793.836 867.936 793.836C866.791 793.836 865.626 793.842 864.439 793.85Z" fill="white"/>
<path d="M830.782 880.473L806.102 881.32C802.869 881.431 800.062 879.118 799.568 875.933L795.9 852.282C795.315 848.515 798.17 845.086 801.997 844.952L831.646 843.935C835.396 843.808 838.45 846.907 838.245 850.634L836.944 874.456C836.765 877.746 834.089 880.357 830.782 880.47V880.473Z" fill="#7D97F4"/>
<path d="M827.595 876.209L808.81 876.854C806.347 876.939 804.214 875.177 803.836 872.754L801.046 854.754C800.603 851.887 802.773 849.276 805.688 849.177L828.254 848.401C831.109 848.305 833.433 850.663 833.277 853.501L832.285 871.632C832.149 874.135 830.112 876.123 827.595 876.209Z" fill="#91B3FA"/>
<path d="M825.883 377.7C825.883 377.7 870.95 298.622 856.969 286.843C842.989 275.064 842.739 309.275 837.083 304.429C831.423 299.582 840.654 271.016 838.139 251.166C835.625 231.316 830.165 204.762 823.116 231.447C816.065 258.132 816.946 284.443 813.892 270.848C810.838 257.254 800.306 186.392 786.76 207.537C773.215 228.683 770.374 256.212 784.027 272.249C797.681 288.289 816.008 306.196 793.474 294.375C770.939 282.55 755.581 287.826 779.684 309.244C779.684 309.244 815.929 339.239 800.193 337.833C784.456 336.427 759.405 353.035 785.223 365.035C785.223 365.035 821.9 370.362 825.883 377.7Z" fill="#91B3FA"/>
<path d="M807.157 449.818C807.157 449.818 719.318 445.65 723.207 425.312C727.093 404.973 755.764 418.593 768.52 419.883C781.276 421.175 773.793 412.453 747.81 394.16C721.826 375.867 707.542 349.08 735.054 361.572C762.566 374.063 773.563 397.521 771.699 380.975C769.836 364.43 734.471 317.849 764.384 336.923C794.296 355.998 792.251 373.646 793.154 387.569C794.058 401.493 798.041 360.62 807.393 366.711C816.746 372.799 811.436 379.055 808.089 395.24C804.74 411.425 814.115 398.379 817.212 393.067C820.308 387.754 827.919 400.496 820.465 418.076C813.01 435.656 807.16 449.818 807.16 449.818H807.157Z" fill="#91B3FA"/>
<path d="M824.653 542.417C824.593 542.468 824.556 542.531 824.539 542.593C824.531 542.599 824.528 542.718 824.534 542.625L824.545 542.375L824.593 541.377L824.676 539.338L824.812 535.213L825.022 526.934L825.309 510.351C825.448 499.291 825.5 488.229 825.465 477.163C825.4 455.038 824.999 432.909 824.159 410.806C823.721 399.755 823.161 388.712 822.465 377.681C821.732 366.652 820.843 355.638 819.718 344.654C818.582 333.671 817.153 322.728 815.252 311.887C813.306 301.074 810.957 290.27 807.07 280.15L807.05 280.096C806.67 279.102 807.164 277.985 808.161 277.605C809.147 277.227 810.252 277.713 810.644 278.69C814.854 289.227 817.366 300.162 819.494 311.105C821.57 322.063 823.164 333.086 824.457 344.129C825.741 355.175 826.786 366.237 827.673 377.309C828.522 388.383 829.235 399.465 829.826 410.551C830.977 432.725 831.679 454.91 832.048 477.1C832.235 488.197 832.338 499.294 832.346 510.394L832.287 527.048L832.187 535.386L832.105 539.568L832.048 541.681L832.008 542.758L832 543.028C832 543.11 831.974 543.4 831.954 543.579C831.909 543.988 831.843 544.395 831.755 544.789C831.102 546.753 828.98 547.812 827.019 547.159C825.056 546.505 823.997 544.383 824.65 542.42L824.653 542.417Z" fill="#7D97F4"/>
<path d="M824.167 546.678C824.136 546.778 824.119 546.883 824.125 546.985C824.125 547.013 824.142 547.141 824.133 547.082L824.111 546.925L824.02 546.297L823.824 545.008L823.409 542.394L822.54 537.147L820.721 526.646C819.48 519.649 818.187 512.658 816.846 505.674C814.17 491.711 811.304 477.782 808.19 463.915C805.059 450.054 801.693 436.247 797.798 422.61C795.846 415.795 793.738 409.03 791.371 402.38C788.985 395.752 786.374 389.166 782.968 383.169L782.939 383.121C782.414 382.195 782.738 381.016 783.664 380.49C784.579 379.97 785.738 380.283 786.275 381.18C790.045 387.507 792.834 394.175 795.417 400.885C797.971 407.607 800.246 414.408 802.366 421.246C806.59 434.929 810.269 448.744 813.713 462.608C817.136 476.478 820.312 490.401 823.298 504.365C824.792 511.345 826.241 518.337 827.636 525.342L829.687 535.863L830.676 541.138L831.156 543.792L831.389 545.138L831.503 545.832L831.531 546.005L831.582 546.431C831.611 546.755 831.625 547.082 831.616 547.403C831.415 549.462 829.582 550.965 827.523 550.763C825.463 550.562 823.957 548.729 824.162 546.67L824.167 546.678Z" fill="#7D97F4"/>
<path d="M842.997 393.666C842.997 393.666 932.047 379.476 923.55 360.592C915.055 341.708 890.322 361.6 878.214 365.813C866.103 370.027 864.364 367.924 885.401 344.108C906.439 320.293 908.402 295.582 884.532 314.111C860.662 332.639 868.924 349.825 866.901 333.299C864.878 316.773 896.782 253.669 872.106 279.155C847.429 304.642 844.412 326.335 846.761 340.091C849.111 353.847 835.761 315.008 828.073 323.1C820.386 331.191 827.002 336.046 834.011 351.015C841.02 365.984 828.877 355.464 824.633 351.015C820.388 346.566 815.937 360.725 827.266 376.098C838.593 391.47 842.997 393.669 842.997 393.669V393.666Z" fill="#7D97F4"/>
<path d="M836.287 544.787C836.202 544.434 836.14 544.071 836.1 543.707C836.08 543.551 836.06 543.281 836.06 543.221L836.054 543.017L836.026 542.201L835.986 540.613L835.932 537.477L835.873 531.235L835.855 518.772C835.881 510.468 835.978 502.163 836.137 493.862C836.449 477.26 837.015 460.663 837.912 444.071C838.836 427.483 840.074 410.903 842.046 394.369C843.035 386.104 844.245 377.851 845.822 369.641C847.438 361.442 849.336 353.248 852.523 345.316C852.921 344.328 854.043 343.848 855.032 344.245C856.009 344.637 856.489 345.74 856.117 346.72L856.095 346.777C853.231 354.291 851.492 362.354 850.063 370.422C848.663 378.513 847.614 386.689 846.785 394.894C845.131 411.306 844.199 427.812 843.583 444.33C842.992 460.85 842.731 477.387 842.719 493.925C842.714 502.192 842.768 510.462 842.893 518.729L843.137 531.121L843.31 537.306L843.418 540.383L843.484 541.9L843.52 542.636L843.529 542.821C843.532 542.892 843.529 542.75 843.518 542.724C843.498 542.616 843.455 542.511 843.393 542.417C844.046 544.38 842.986 546.5 841.023 547.156C839.06 547.809 836.941 546.75 836.287 544.787Z" fill="#7D97F4"/>
<path d="M793.657 527.619H867.392C872.224 527.619 875.801 532.116 874.713 536.824C869.994 557.262 864.341 578.001 852.772 599.05C850.636 602.939 846.567 605.377 842.13 605.377H818.07C813.7 605.377 809.692 602.976 807.621 599.129C798.353 581.907 789.436 561.376 785.032 538.074C784.006 532.65 788.134 527.619 793.654 527.619H793.657Z" fill="url(#paint43_linear_379_969)"/>
<defs>
<linearGradient id="paint0_linear_379_969" x1="963.929" y1="1027.96" x2="383.843" y2="401.836" gradientUnits="userSpaceOnUse">
<stop stop-color="#DAE3FE"/>
<stop offset="1" stop-color="#E9EFFD"/>
</linearGradient>
<linearGradient id="paint1_linear_379_969" x1="245.227" y1="893.562" x2="303.793" y2="893.562" gradientUnits="userSpaceOnUse">
<stop stop-color="#4F52FF"/>
<stop offset="1" stop-color="#4042E2"/>
</linearGradient>
<linearGradient id="paint2_linear_379_969" x1="280.003" y1="994.301" x2="300.251" y2="1313.92" gradientUnits="userSpaceOnUse">
<stop stop-color="#09005D"/>
<stop offset="1" stop-color="#1A0F91"/>
</linearGradient>
<linearGradient id="paint3_linear_379_969" x1="261.514" y1="826.888" x2="250.326" y2="924.521" gradientUnits="userSpaceOnUse">
<stop stop-color="#FEBBBA"/>
<stop offset="1" stop-color="#FF928E"/>
</linearGradient>
<linearGradient id="paint4_linear_379_969" x1="381.349" y1="987.883" x2="401.597" y2="1307.5" gradientUnits="userSpaceOnUse">
<stop stop-color="#09005D"/>
<stop offset="1" stop-color="#1A0F91"/>
</linearGradient>
<linearGradient id="paint5_linear_379_969" x1="334.405" y1="895.12" x2="418.708" y2="895.12" gradientUnits="userSpaceOnUse">
<stop stop-color="#4F52FF"/>
<stop offset="1" stop-color="#4042E2"/>
</linearGradient>
<linearGradient id="paint6_linear_379_969" x1="352.638" y1="837.329" x2="341.451" y2="934.962" gradientUnits="userSpaceOnUse">
<stop stop-color="#FEBBBA"/>
<stop offset="1" stop-color="#FF928E"/>
</linearGradient>
<linearGradient id="paint7_linear_379_969" x1="485.559" y1="390.87" x2="127.756" y2="946.084" gradientUnits="userSpaceOnUse">
<stop stop-color="#09005D"/>
<stop offset="1" stop-color="#1A0F91"/>
</linearGradient>
<linearGradient id="paint8_linear_379_969" x1="60.9114" y1="431.815" x2="484.378" y2="355.515" gradientUnits="userSpaceOnUse">
<stop stop-color="#4F52FF"/>
<stop offset="1" stop-color="#4042E2"/>
</linearGradient>
<linearGradient id="paint9_linear_379_969" x1="286.226" y1="202.741" x2="243.512" y2="387.33" gradientUnits="userSpaceOnUse">
<stop stop-color="#FEBBBA"/>
<stop offset="1" stop-color="#FF928E"/>
</linearGradient>
<linearGradient id="paint10_linear_379_969" x1="279.066" y1="166.992" x2="300.121" y2="290.886" gradientUnits="userSpaceOnUse">
<stop stop-color="#FEBBBA"/>
<stop offset="1" stop-color="#FF928E"/>
</linearGradient>
<linearGradient id="paint11_linear_379_969" x1="256.925" y1="225.632" x2="318.972" y2="159.72" gradientUnits="userSpaceOnUse">
<stop stop-color="#09005D"/>
<stop offset="1" stop-color="#1A0F91"/>
</linearGradient>
<linearGradient id="paint12_linear_379_969" x1="260.795" y1="302.223" x2="257.049" y2="215.22" gradientUnits="userSpaceOnUse">
<stop stop-color="#FEBBBA"/>
<stop offset="1" stop-color="#FF928E"/>
</linearGradient>
<linearGradient id="paint13_linear_379_969" x1="52.1186" y1="383.02" x2="475.585" y2="306.72" gradientUnits="userSpaceOnUse">
<stop stop-color="#4F52FF"/>
<stop offset="1" stop-color="#4042E2"/>
</linearGradient>
<linearGradient id="paint14_linear_379_969" x1="621.701" y1="198.232" x2="360.309" y2="532.657" gradientUnits="userSpaceOnUse">
<stop stop-color="#FEBBBA"/>
<stop offset="1" stop-color="#FF928E"/>
</linearGradient>
<linearGradient id="paint15_linear_379_969" x1="503.072" y1="96.1702" x2="558.317" y2="395.085" gradientUnits="userSpaceOnUse">
<stop stop-color="#09005D"/>
<stop offset="1" stop-color="#1A0F91"/>
</linearGradient>
<linearGradient id="paint16_linear_379_969" x1="2379.66" y1="-1394.97" x2="2551.29" y2="-1607.09" gradientUnits="userSpaceOnUse">
<stop stop-color="#4F52FF"/>
<stop offset="1" stop-color="#4042E2"/>
</linearGradient>
<linearGradient id="paint17_linear_379_969" x1="433.776" y1="1092.71" x2="507.232" y2="234.175" gradientUnits="userSpaceOnUse">
<stop stop-color="#FEBBBA"/>
<stop offset="1" stop-color="#FF928E"/>
</linearGradient>
<linearGradient id="paint18_linear_379_969" x1="2342.97" y1="-1424.65" x2="2514.6" y2="-1636.77" gradientUnits="userSpaceOnUse">
<stop stop-color="#4F52FF"/>
<stop offset="1" stop-color="#4042E2"/>
</linearGradient>
<linearGradient id="paint19_linear_379_969" x1="545.218" y1="745.923" x2="495.768" y2="745.923" gradientUnits="userSpaceOnUse">
<stop stop-color="#FEBBBA"/>
<stop offset="1" stop-color="#FF928E"/>
</linearGradient>
<linearGradient id="paint20_linear_379_969" x1="513.227" y1="714.249" x2="479.022" y2="421.231" gradientUnits="userSpaceOnUse">
<stop stop-color="#09005D"/>
<stop offset="1" stop-color="#1A0F91"/>
</linearGradient>
<linearGradient id="paint21_linear_379_969" x1="302.86" y1="464.399" x2="231.962" y2="798.511" gradientUnits="userSpaceOnUse">
<stop stop-color="#FEBBBA"/>
<stop offset="1" stop-color="#FF928E"/>
</linearGradient>
<linearGradient id="paint22_linear_379_969" x1="348.977" y1="384.715" x2="428.613" y2="382.587" gradientUnits="userSpaceOnUse">
<stop stop-color="#FEBBBA"/>
<stop offset="1" stop-color="#FF928E"/>
</linearGradient>
<linearGradient id="paint23_linear_379_969" x1="417.374" y1="572.751" x2="455.525" y2="-49.0976" gradientUnits="userSpaceOnUse">
<stop stop-color="#E1473D"/>
<stop offset="1" stop-color="#E9605A"/>
</linearGradient>
<linearGradient id="paint24_linear_379_969" x1="600.377" y1="463.71" x2="490.224" y2="363.572" gradientUnits="userSpaceOnUse">
<stop stop-color="#E1473D"/>
<stop offset="1" stop-color="#E9605A"/>
</linearGradient>
<linearGradient id="paint25_linear_379_969" x1="496.938" y1="500.31" x2="636.086" y2="341.147" gradientUnits="userSpaceOnUse">
<stop stop-color="#FEBBBA"/>
<stop offset="1" stop-color="#FF928E"/>
</linearGradient>
<linearGradient id="paint26_linear_379_969" x1="621.895" y1="440.044" x2="511.742" y2="339.903" gradientUnits="userSpaceOnUse">
<stop stop-color="#E1473D"/>
<stop offset="1" stop-color="#E9605A"/>
</linearGradient>
<linearGradient id="paint27_linear_379_969" x1="493.634" y1="328.565" x2="487.912" y2="244.637" gradientUnits="userSpaceOnUse">
<stop stop-color="#FEBBBA"/>
<stop offset="1" stop-color="#FF928E"/>
</linearGradient>
<linearGradient id="paint28_linear_379_969" x1="449.119" y1="205.532" x2="531.277" y2="287.874" gradientUnits="userSpaceOnUse">
<stop stop-color="#FEBBBA"/>
<stop offset="1" stop-color="#FF928E"/>
</linearGradient>
<linearGradient id="paint29_linear_379_969" x1="459.962" y1="111.579" x2="491.119" y2="335.393" gradientUnits="userSpaceOnUse">
<stop stop-color="#09005D"/>
<stop offset="1" stop-color="#1A0F91"/>
</linearGradient>
<linearGradient id="paint30_linear_379_969" x1="467.014" y1="187.676" x2="549.169" y2="270.018" gradientUnits="userSpaceOnUse">
<stop stop-color="#FEBBBA"/>
<stop offset="1" stop-color="#FF928E"/>
</linearGradient>
<linearGradient id="paint31_linear_379_969" x1="593.838" y1="333.826" x2="676.789" y2="399.316" gradientUnits="userSpaceOnUse">
<stop stop-color="#FEBBBA"/>
<stop offset="1" stop-color="#FF928E"/>
</linearGradient>
<linearGradient id="paint32_linear_379_969" x1="241.557" y1="530.449" x2="55.5697" y2="320.015" gradientUnits="userSpaceOnUse">
<stop stop-color="#FEBBBA"/>
<stop offset="1" stop-color="#FF928E"/>
</linearGradient>
<linearGradient id="paint33_linear_379_969" x1="244.221" y1="528.094" x2="58.2341" y2="317.657" gradientUnits="userSpaceOnUse">
<stop stop-color="#FEBBBA"/>
<stop offset="1" stop-color="#FF928E"/>
</linearGradient>
<linearGradient id="paint34_linear_379_969" x1="545.405" y1="572.489" x2="633.738" y2="601.457" gradientUnits="userSpaceOnUse">
<stop stop-color="#09005D"/>
<stop offset="1" stop-color="#1A0F91"/>
</linearGradient>
<linearGradient id="paint35_linear_379_969" x1="666.683" y1="514.521" x2="730.295" y2="581.756" gradientUnits="userSpaceOnUse">
<stop stop-color="#09005D"/>
<stop offset="1" stop-color="#1A0F91"/>
</linearGradient>
<linearGradient id="paint36_linear_379_969" x1="815.759" y1="625.962" x2="815.759" y2="730.393" gradientUnits="userSpaceOnUse">
<stop stop-color="#4F52FF"/>
<stop offset="1" stop-color="#4042E2"/>
</linearGradient>
<linearGradient id="paint37_linear_379_969" x1="774.917" y1="804.016" x2="772.829" y2="776.437" gradientUnits="userSpaceOnUse">
<stop stop-color="#4F52FF"/>
<stop offset="1" stop-color="#4042E2"/>
</linearGradient>
<linearGradient id="paint38_linear_379_969" x1="772.049" y1="762.6" x2="780.464" y2="841.555" gradientUnits="userSpaceOnUse">
<stop stop-color="#4F52FF"/>
<stop offset="1" stop-color="#4042E2"/>
</linearGradient>
<linearGradient id="paint39_linear_379_969" x1="851.75" y1="798.198" x2="849.661" y2="770.62" gradientUnits="userSpaceOnUse">
<stop stop-color="#4F52FF"/>
<stop offset="1" stop-color="#4042E2"/>
</linearGradient>
<linearGradient id="paint40_linear_379_969" x1="848.596" y1="754.442" x2="857.012" y2="833.397" gradientUnits="userSpaceOnUse">
<stop stop-color="#4F52FF"/>
<stop offset="1" stop-color="#4042E2"/>
</linearGradient>
<linearGradient id="paint41_linear_379_969" x1="815.663" y1="716.985" x2="809.913" y2="773.624" gradientUnits="userSpaceOnUse">
<stop stop-color="#4F52FF"/>
<stop offset="1" stop-color="#4042E2"/>
</linearGradient>
<linearGradient id="paint42_linear_379_969" x1="819.489" y1="760.809" x2="800.352" y2="1024.85" gradientUnits="userSpaceOnUse">
<stop stop-color="#4F52FF"/>
<stop offset="1" stop-color="#4042E2"/>
</linearGradient>
<linearGradient id="paint43_linear_379_969" x1="803.853" y1="663.003" x2="827.931" y2="545.293" gradientUnits="userSpaceOnUse">
<stop stop-color="#4F52FF"/>
<stop offset="1" stop-color="#4042E2"/>
</linearGradient>
</defs>
</svg>
