<svg width="35" height="35" viewBox="0 0 35 35" fill="none" xmlns="http://www.w3.org/2000/svg">
<path fill-rule="evenodd" clip-rule="evenodd" d="M0.00208991 3.53051C0.00208991 1.58066 1.58266 0 3.53239 0C4.0675 0 4.5956 0.121657 5.07677 0.355759L32.6745 13.7825C34.0972 14.4746 35 15.918 35 17.5C35 19.082 34.0972 20.5254 32.6745 21.2175L5.07677 34.6443C4.5956 34.8783 4.0675 35 3.53239 35C1.58266 35 0.00208991 33.4193 0.00208991 31.4695C0.00208991 31.1627 -0.0189407 30.8519 0.0724357 30.5548L3.25406 20.2139C3.41789 19.6815 3.84828 19.2735 4.38871 19.1385L10.942 17.5L4.38871 15.8615C3.84828 15.7265 3.41789 15.3185 3.25406 14.7861L0.0724357 4.44514C-0.0189423 4.14814 0.00208991 3.83721 0.00208991 3.53051ZM3.53239 3.18182C3.33982 3.18182 3.18372 3.33793 3.18372 3.53051V3.73805L6.03107 12.9925L17.8868 15.9567C18.595 16.1336 19.0919 16.7699 19.0919 17.5C19.0919 18.2301 18.595 18.8664 17.8868 19.0433L6.03107 22.0075L3.18372 31.262V31.4695C3.18372 31.6621 3.33982 31.8182 3.53239 31.8182C3.58524 31.8182 3.6374 31.8061 3.68492 31.783L31.2827 18.3562C31.6105 18.1968 31.8184 17.8645 31.8184 17.5C31.8184 17.1355 31.6105 16.8032 31.2827 16.6438L3.68492 3.21696C3.6374 3.19383 3.58524 3.18182 3.53239 3.18182Z" fill="black"/>
</svg>
