<svg width="776" height="459" viewBox="0 0 776 459" fill="none" xmlns="http://www.w3.org/2000/svg">
<g clip-path="url(#clip0_758_785)">
<rect width="776" height="459" rx="10" fill="white"/>
<path d="M657.372 428.857C653.821 426.34 651.253 427.199 650.412 427.943C649.404 430.919 652.161 433.828 653.035 434.944C657.17 438.224 665.602 445.313 666.248 447.423C667.054 450.061 672.098 456.96 676.636 459.902C680.267 462.256 686.554 462.844 689.244 462.844C689.647 462.675 691.382 462.641 695.094 463.859C698.806 465.076 702.289 462.878 703.566 461.626C706.088 459.225 711.252 453.733 711.736 450.974C712.22 448.214 715.166 441.978 716.578 439.205C722.428 435.451 734.672 426.97 736.851 423.074C739.029 419.178 735.943 419.015 734.128 419.421C728.849 423.141 717.405 430.947 713.854 432.407C710.304 433.868 710.963 430.649 711.736 428.857L724.445 407.551C725.891 404.981 728.177 399.536 725.756 398.319C723.335 397.101 720.444 400.72 719.301 402.681C715.737 409.343 707.984 423.175 705.483 425.204C702.981 427.233 703.163 424.967 703.566 423.581L713.854 394.666C714.695 392.705 715.609 388.477 712.543 387.26C709.477 386.043 707.298 391.69 706.592 394.666C704.004 402.242 698.08 418.224 695.094 421.552C692.109 424.88 689.95 422.059 689.244 420.233L688.74 394.666C688.538 393.111 687.509 389.938 685.008 389.695C682.506 389.451 681.814 393.855 681.78 396.087L681.175 424.291C680.772 427.233 679.299 434.112 676.636 438.089C673.974 442.066 670.484 440.49 669.072 439.205C666.651 436.804 660.922 431.373 657.372 428.857Z" fill="#718DF0" fill-opacity="0.08"/>
<path d="M297.15 200.546C293.6 198.03 291.031 198.889 290.19 199.633C289.182 202.608 291.939 205.517 292.813 206.633C296.948 209.913 305.38 217.002 306.026 219.112C306.833 221.75 311.876 228.649 316.415 231.591C320.046 233.945 326.333 234.533 329.022 234.533C329.426 234.364 331.161 234.33 334.872 235.548C338.584 236.765 342.067 234.567 343.345 233.316C345.866 230.915 351.03 225.422 351.514 222.663C351.999 219.903 354.944 213.667 356.356 210.894C362.206 207.14 374.45 198.659 376.629 194.763C378.808 190.867 375.721 190.705 373.906 191.11C368.627 194.83 357.183 202.636 353.633 204.097C350.082 205.558 350.741 202.338 351.514 200.546L364.223 179.24C365.669 176.67 367.955 171.225 365.534 170.008C363.114 168.79 360.222 172.409 359.079 174.37C355.515 181.033 347.762 194.864 345.261 196.893C342.76 198.922 342.941 196.657 343.345 195.27L353.633 166.355C354.473 164.394 355.388 160.167 352.321 158.949C349.255 157.732 347.077 163.379 346.37 166.355C343.782 173.931 337.858 189.913 334.872 193.241C331.887 196.569 329.728 193.748 329.022 191.922L328.518 166.355C328.316 164.8 327.287 161.628 324.786 161.384C322.285 161.141 321.592 165.544 321.558 167.776L320.953 195.98C320.55 198.922 319.077 205.801 316.415 209.778C313.752 213.755 310.262 212.179 308.85 210.894C306.429 208.493 300.7 203.062 297.15 200.546Z" fill="#718DF0" fill-opacity="0.08"/>
<path d="M228.081 285.932C224.531 283.416 221.962 284.275 221.122 285.019C220.114 287.995 222.87 290.903 223.744 292.019C227.879 295.3 236.312 302.388 236.957 304.498C237.764 307.136 242.807 314.035 247.346 316.977C250.977 319.331 257.264 319.92 259.954 319.92C260.357 319.751 262.092 319.717 265.804 320.934C269.515 322.152 272.998 319.953 274.276 318.702C276.797 316.301 281.962 310.809 282.446 308.049C282.93 305.29 285.875 299.054 287.287 296.281C293.137 292.527 305.382 284.045 307.56 280.149C309.739 276.253 306.653 276.091 304.837 276.497C299.559 280.217 288.114 288.022 284.564 289.483C281.013 290.944 281.672 287.725 282.446 285.932L295.154 264.627C296.6 262.056 298.886 256.612 296.466 255.394C294.045 254.177 291.153 257.795 290.01 259.757C286.447 266.419 278.694 280.251 276.192 282.28C273.691 284.309 273.872 282.043 274.276 280.657L284.564 251.742C285.404 249.78 286.319 245.553 283.253 244.336C280.186 243.118 278.008 248.766 277.302 251.742C274.713 259.317 268.789 275.3 265.804 278.627C262.818 281.955 260.66 279.135 259.954 277.309L259.449 251.742C259.247 250.186 258.219 247.014 255.717 246.771C253.216 246.527 252.523 250.93 252.49 253.162L251.885 281.367C251.481 284.309 250.009 291.188 247.346 295.165C244.683 299.142 241.193 297.566 239.781 296.281C237.36 293.88 231.632 288.448 228.081 285.932Z" fill="#718DF0" fill-opacity="0.08"/>
<path d="M232.185 395.679C228.635 393.163 226.066 394.022 225.226 394.766C224.218 397.742 226.974 400.65 227.848 401.766C231.983 405.047 240.416 412.135 241.061 414.245C241.868 416.883 246.911 423.782 251.45 426.724C255.081 429.078 261.368 429.666 264.058 429.666C264.461 429.497 266.196 429.463 269.908 430.681C273.619 431.898 277.102 429.7 278.38 428.449C280.901 426.048 286.066 420.556 286.55 417.796C287.034 415.037 289.979 408.801 291.391 406.027C297.241 402.274 309.486 393.792 311.664 389.896C313.843 386 310.757 385.838 308.941 386.244C303.663 389.964 292.218 397.769 288.668 399.23C285.117 400.691 285.776 397.471 286.55 395.679L299.258 374.373C300.704 371.803 302.99 366.358 300.57 365.141C298.149 363.924 295.257 367.542 294.114 369.504C290.551 376.166 282.798 389.998 280.296 392.027C277.795 394.056 277.976 391.79 278.38 390.403L288.668 361.489C289.508 359.527 290.423 355.3 287.357 354.082C284.29 352.865 282.112 358.513 281.406 361.489C278.817 369.064 272.893 385.047 269.908 388.374C266.922 391.702 264.764 388.882 264.058 387.055L263.553 361.489C263.351 359.933 262.323 356.761 259.821 356.517C257.32 356.274 256.627 360.677 256.594 362.909L255.989 391.114C255.585 394.056 254.113 400.934 251.45 404.911C248.787 408.888 245.297 407.313 243.885 406.027C241.464 403.626 235.736 398.195 232.185 395.679Z" fill="#718DF0" fill-opacity="0.08"/>
<path d="M163.113 481.064C159.563 478.548 156.994 479.407 156.154 480.151C155.145 483.127 157.902 486.035 158.776 487.151C162.911 490.432 171.343 497.52 171.989 499.63C172.796 502.268 177.839 509.167 182.378 512.109C186.009 514.463 192.296 515.051 194.986 515.051C195.389 514.882 197.124 514.848 200.835 516.066C204.547 517.283 208.03 515.085 209.308 513.834C211.829 511.433 216.994 505.941 217.478 503.181C217.962 500.421 220.907 494.185 222.319 491.412C228.169 487.658 240.414 479.177 242.592 475.281C244.771 471.385 241.685 471.223 239.869 471.629C234.591 475.349 223.146 483.154 219.596 484.615C216.045 486.076 216.704 482.856 217.478 481.064L230.186 459.758C231.632 457.188 233.918 451.743 231.497 450.526C229.077 449.308 226.185 452.927 225.042 454.888C221.479 461.551 213.726 475.382 211.224 477.411C208.723 479.441 208.904 477.175 209.308 475.788L219.596 446.874C220.436 444.912 221.351 440.685 218.285 439.467C215.218 438.25 213.04 443.898 212.334 446.874C209.745 454.449 203.821 470.431 200.835 473.759C197.85 477.087 195.692 474.266 194.986 472.44L194.481 446.874C194.279 445.318 193.251 442.146 190.749 441.902C188.248 441.659 187.555 446.062 187.522 448.294L186.917 476.498C186.513 479.441 185.041 486.319 182.378 490.296C179.715 494.273 176.225 492.697 174.813 491.412C172.392 489.011 166.664 483.58 163.113 481.064Z" fill="#718DF0" fill-opacity="0.08"/>
<path d="M511.794 272.009C508.244 269.493 505.675 270.352 504.835 271.096C503.827 274.072 506.583 276.98 507.457 278.096C511.593 281.376 520.025 288.465 520.67 290.575C521.477 293.213 526.52 300.112 531.059 303.054C534.69 305.408 540.977 305.996 543.667 305.996C544.07 305.827 545.805 305.793 549.517 307.011C553.228 308.228 556.712 306.03 557.989 304.779C560.511 302.378 565.675 296.885 566.159 294.126C566.643 291.366 569.588 285.13 571 282.357C576.85 278.603 589.095 270.122 591.274 266.226C593.452 262.33 590.366 262.168 588.55 262.573C583.272 266.293 571.827 274.099 568.277 275.56C564.727 277.021 565.386 273.801 566.159 272.009L578.868 250.703C580.313 248.133 582.599 242.688 580.179 241.471C577.758 240.253 574.867 243.872 573.724 245.833C570.16 252.496 562.407 266.327 559.905 268.356C557.404 270.385 557.586 268.12 557.989 266.733L568.277 237.818C569.118 235.857 570.032 231.63 566.966 230.412C563.9 229.195 561.721 234.842 561.015 237.818C558.426 245.394 552.502 261.376 549.517 264.704C546.531 268.032 544.373 265.211 543.667 263.385L543.162 237.818C542.961 236.263 541.932 233.091 539.431 232.847C536.929 232.604 536.237 237.007 536.203 239.239L535.598 267.443C535.194 270.385 533.722 277.264 531.059 281.241C528.396 285.218 524.906 283.642 523.494 282.357C521.074 279.956 515.345 274.525 511.794 272.009Z" fill="#718DF0" fill-opacity="0.08"/>
<path d="M442.726 357.394C439.175 354.878 436.607 355.737 435.766 356.481C434.758 359.457 437.514 362.366 438.389 363.482C442.524 366.762 450.956 373.85 451.601 375.961C452.408 378.598 457.451 385.497 461.99 388.44C465.621 390.793 471.908 391.382 474.598 391.382C475.001 391.213 476.736 391.179 480.448 392.396C484.16 393.614 487.643 391.416 488.92 390.164C491.442 387.763 496.606 382.271 497.09 379.512C497.574 376.752 500.519 370.516 501.932 367.743C507.782 363.989 520.026 355.507 522.205 351.611C524.383 347.716 521.297 347.553 519.482 347.959C514.203 351.679 502.759 359.484 499.208 360.945C495.658 362.406 496.317 359.187 497.09 357.394L509.799 336.089C511.244 333.519 513.531 328.074 511.11 326.856C508.689 325.639 505.798 329.258 504.655 331.219C501.091 337.881 493.338 351.713 490.837 353.742C488.335 355.771 488.517 353.505 488.92 352.119L499.208 323.204C500.049 321.243 500.963 317.015 497.897 315.798C494.831 314.58 492.652 320.228 491.946 323.204C489.357 330.779 483.433 346.762 480.448 350.09C477.462 353.417 475.304 350.597 474.598 348.771L474.094 323.204C473.892 321.648 472.863 318.476 470.362 318.233C467.86 317.989 467.168 322.392 467.134 324.624L466.529 352.829C466.126 355.771 464.653 362.65 461.99 366.627C459.328 370.604 455.838 369.028 454.426 367.743C452.005 365.342 446.276 359.911 442.726 357.394Z" fill="#718DF0" fill-opacity="0.08"/>
<path d="M446.83 467.14C443.279 464.624 440.711 465.483 439.87 466.227C438.862 469.203 441.618 472.112 442.493 473.228C446.628 476.508 455.06 483.596 455.705 485.707C456.512 488.344 461.555 495.243 466.094 498.186C469.725 500.539 476.012 501.128 478.702 501.128C479.105 500.959 480.84 500.925 484.552 502.142C488.264 503.36 491.747 501.162 493.024 499.91C495.546 497.509 500.71 492.017 501.194 489.258C501.678 486.498 504.623 480.262 506.036 477.489C511.886 473.735 524.13 465.253 526.309 461.357C528.487 457.461 525.401 457.299 523.586 457.705C518.307 461.425 506.863 469.23 503.312 470.691C499.762 472.152 500.421 468.933 501.194 467.14L513.903 445.835C515.348 443.265 517.635 437.82 515.214 436.602C512.793 435.385 509.902 439.003 508.759 440.965C505.195 447.627 497.442 461.459 494.941 463.488C492.439 465.517 492.621 463.251 493.024 461.865L503.312 432.95C504.153 430.989 505.067 426.761 502.001 425.544C498.935 424.326 496.756 429.974 496.05 432.95C493.461 440.525 487.537 456.508 484.552 459.836C481.566 463.163 479.408 460.343 478.702 458.517L478.198 432.95C477.996 431.394 476.967 428.222 474.466 427.979C471.964 427.735 471.272 432.138 471.238 434.37L470.633 462.575C470.23 465.517 468.757 472.396 466.094 476.373C463.432 480.35 459.942 478.774 458.53 477.489C456.109 475.088 450.38 469.656 446.83 467.14Z" fill="#718DF0" fill-opacity="0.08"/>
<path d="M82.5038 129.085C78.9535 126.569 76.3848 127.428 75.5443 128.172C74.5361 131.148 77.2926 134.056 78.1667 135.172C82.3021 138.453 90.7341 145.541 91.3796 147.651C92.1865 150.289 97.2296 157.188 101.768 160.13C105.399 162.484 111.686 163.073 114.376 163.073C114.78 162.903 116.514 162.87 120.226 164.087C123.938 165.305 127.421 163.106 128.699 161.855C131.22 159.454 136.384 153.962 136.868 151.202C137.352 148.443 140.298 142.207 141.71 139.434C147.56 135.68 159.804 127.198 161.983 123.302C164.162 119.406 161.075 119.244 159.26 119.65C153.981 123.37 142.537 131.175 138.986 132.636C135.436 134.097 136.095 130.878 136.868 129.085L149.577 107.78C151.023 105.209 153.309 99.7647 150.888 98.5472C148.467 97.3297 145.576 100.948 144.433 102.91C140.869 109.572 133.116 123.404 130.615 125.433C128.114 127.462 128.295 125.196 128.699 123.809L138.986 94.8949C139.827 92.9334 140.741 88.7061 137.675 87.4887C134.609 86.2712 132.43 91.9189 131.724 94.8949C129.136 102.47 123.212 118.453 120.226 121.78C117.241 125.108 115.082 122.288 114.376 120.462L113.872 94.8949C113.67 93.3392 112.641 90.1671 110.14 89.9236C107.639 89.6801 106.946 94.0832 106.912 96.3152L106.307 124.52C105.904 127.462 104.431 134.341 101.768 138.318C99.1057 142.295 95.6158 140.719 94.2038 139.434C91.7831 137.033 86.0541 131.601 82.5038 129.085Z" fill="#718DF0" fill-opacity="0.08"/>
<path d="M13.4367 214.47C9.88638 211.954 7.31776 212.813 6.47725 213.557C5.46905 216.533 8.22552 219.441 9.09966 220.557C13.235 223.838 21.667 230.926 22.3126 233.036C23.1194 235.674 28.1625 242.573 32.7013 245.515C36.3324 247.869 42.6194 248.457 45.3091 248.457C45.7125 248.288 47.4473 248.254 51.159 249.472C54.8708 250.689 58.3539 248.491 59.6314 247.24C62.153 244.839 67.3171 239.347 67.8012 236.587C68.2854 233.828 71.2306 227.592 72.6426 224.818C78.4926 221.065 90.7372 212.583 92.9158 208.687C95.0945 204.791 92.0081 204.629 90.1926 205.035C84.9141 208.755 73.4697 216.56 69.9193 218.021C66.369 219.482 67.028 216.262 67.8012 214.47L80.5098 193.164C81.9555 190.594 84.2417 185.149 81.821 183.932C79.4004 182.715 76.509 186.333 75.3659 188.295C71.8021 194.957 64.0492 208.789 61.5478 210.818C59.0464 212.847 59.228 210.581 59.6314 209.194L69.9193 180.28C70.7599 178.318 71.6743 174.091 68.6081 172.873C65.5419 171.656 63.3633 177.304 62.6573 180.28C60.0685 187.855 54.1446 203.838 51.159 207.165C48.1735 210.493 46.0151 207.673 45.3091 205.846L44.8047 180.28C44.603 178.724 43.5742 175.552 41.0729 175.308C38.5715 175.065 37.8789 179.468 37.8453 181.7L37.2401 209.905C36.8367 212.847 35.3641 219.725 32.7013 223.702C30.0386 227.679 26.5488 226.104 25.1367 224.818C22.716 222.417 16.9871 216.986 13.4367 214.47Z" fill="#718DF0" fill-opacity="0.08"/>
<path d="M17.5391 324.217C13.9887 321.701 11.4201 322.56 10.5796 323.304C9.5714 326.28 12.3279 329.188 13.202 330.304C17.3373 333.584 25.7694 340.673 26.4149 342.783C27.2218 345.421 32.2649 352.32 36.8037 355.262C40.4347 357.616 46.7218 358.204 49.4114 358.204C49.8149 358.035 51.5497 358.001 55.2614 359.219C58.9731 360.436 62.4562 358.238 63.7338 356.987C66.2553 354.586 71.4195 349.094 71.9036 346.334C72.3877 343.574 75.3329 337.338 76.745 334.565C82.595 330.811 94.8396 322.33 97.0182 318.434C99.1968 314.538 96.1104 314.376 94.2949 314.782C89.0165 318.502 77.572 326.307 74.0217 327.768C70.4714 329.229 71.1303 326.009 71.9036 324.217L84.6122 302.911C86.0579 300.341 88.3441 294.896 85.9234 293.679C83.5027 292.461 80.6113 296.08 79.4682 298.041C75.9045 304.704 68.1515 318.535 65.6502 320.564C63.1488 322.594 63.3303 320.328 63.7338 318.941L74.0217 290.027C74.8622 288.065 75.7767 283.838 72.7105 282.62C69.6443 281.403 67.4657 287.051 66.7597 290.027C64.1709 297.602 58.2469 313.584 55.2614 316.912C52.2759 320.24 50.1174 317.419 49.4114 315.593L48.9071 290.027C48.7054 288.471 47.6766 285.299 45.1752 285.055C42.6738 284.812 41.9813 289.215 41.9476 291.447L41.3425 319.651C40.939 322.594 39.4664 329.472 36.8037 333.449C34.1409 337.426 30.6511 335.85 29.239 334.565C26.8184 332.164 21.0894 326.733 17.5391 324.217Z" fill="#718DF0" fill-opacity="0.08"/>
<path d="M-51.5329 409.602C-55.0833 407.086 -57.6519 407.945 -58.4924 408.689C-59.5006 411.664 -56.7441 414.573 -55.87 415.689C-51.7347 418.969 -43.3026 426.058 -42.6571 428.168C-41.8502 430.806 -36.8071 437.705 -32.2683 440.647C-28.6373 443.001 -22.3503 443.589 -19.6606 443.589C-19.2572 443.42 -17.5223 443.386 -13.8106 444.604C-10.0989 445.821 -6.61581 443.623 -5.33823 442.372C-2.81668 439.971 2.34745 434.478 2.83158 431.719C3.31572 428.959 6.26089 422.723 7.67295 419.95C13.5229 416.196 25.7676 407.715 27.9462 403.819C30.1248 399.923 27.0384 399.76 25.2229 400.166C19.9445 403.886 8.50002 411.692 4.94968 413.153C1.39934 414.614 2.05831 411.394 2.83158 409.602L15.5402 388.296C16.9859 385.726 19.2721 380.281 16.8514 379.064C14.4307 377.846 11.5393 381.465 10.3962 383.426C6.83244 390.088 -0.920479 403.92 -3.42185 405.949C-5.92323 407.978 -5.74167 405.713 -5.33823 404.326L4.94968 375.411C5.79019 373.45 6.70467 369.223 3.63848 368.005C0.572277 366.788 -1.60634 372.435 -2.31237 375.411C-4.90116 382.987 -10.8251 398.969 -13.8106 402.297C-16.7961 405.625 -18.9546 402.804 -19.6606 400.978L-20.1649 375.411C-20.3666 373.856 -21.3954 370.684 -23.8968 370.44C-26.3982 370.197 -27.0908 374.6 -27.1244 376.832L-27.7296 405.036C-28.133 407.978 -29.6056 414.857 -32.2683 418.834C-34.9311 422.811 -38.4209 421.235 -39.833 419.95C-42.2537 417.549 -47.9826 412.118 -51.5329 409.602Z" fill="#718DF0" fill-opacity="0.08"/>
<path d="M726.439 343.471C722.889 340.955 720.32 341.814 719.479 342.558C718.471 345.534 721.228 348.442 722.102 349.558C726.237 352.839 734.669 359.927 735.315 362.037C736.122 364.675 741.165 371.574 745.703 374.516C749.334 376.87 755.622 377.458 758.311 377.458C758.715 377.289 760.449 377.255 764.161 378.473C767.873 379.69 771.356 377.492 772.634 376.241C775.155 373.84 780.319 368.348 780.803 365.588C781.288 362.828 784.233 356.592 785.645 353.819C791.495 350.066 803.739 341.584 805.918 337.688C808.097 333.792 805.01 333.63 803.195 334.036C797.916 337.756 786.472 345.561 782.921 347.022C779.371 348.483 780.03 345.263 780.803 343.471L793.512 322.165C794.958 319.595 797.244 314.15 794.823 312.933C792.402 311.715 789.511 315.334 788.368 317.295C784.804 323.958 777.051 337.789 774.55 339.819C772.049 341.848 772.23 339.582 772.634 338.195L782.921 309.281C783.762 307.319 784.676 303.092 781.61 301.874C778.544 300.657 776.365 306.305 775.659 309.281C773.071 316.856 767.147 332.838 764.161 336.166C761.176 339.494 759.017 336.673 758.311 334.847L757.807 309.281C757.605 307.725 756.576 304.553 754.075 304.309C751.574 304.066 750.881 308.469 750.847 310.701L750.242 338.905C749.839 341.848 748.366 348.726 745.703 352.703C743.041 356.68 739.551 355.104 738.139 353.819C735.718 351.418 729.989 345.987 726.439 343.471Z" fill="#718DF0" fill-opacity="0.08"/>
<path d="M404.473 236.278C400.923 233.762 398.354 234.621 397.514 235.365C396.505 238.341 399.262 241.249 400.136 242.365C404.271 245.646 412.703 252.734 413.349 254.844C414.156 257.482 419.199 264.381 423.738 267.323C427.369 269.677 433.656 270.265 436.345 270.265C436.749 270.096 438.484 270.063 442.195 271.28C445.907 272.497 449.39 270.299 450.668 269.048C453.189 266.647 458.353 261.155 458.838 258.395C459.322 255.636 462.267 249.4 463.679 246.626C469.529 242.873 481.773 234.391 483.952 230.495C486.131 226.599 483.044 226.437 481.229 226.843C475.95 230.563 464.506 238.368 460.956 239.829C457.405 241.29 458.064 238.07 458.838 236.278L471.546 214.972C472.992 212.402 475.278 206.958 472.857 205.74C470.437 204.523 467.545 208.141 466.402 210.103C462.838 216.765 455.085 230.597 452.584 232.626C450.083 234.655 450.264 232.389 450.668 231.002L460.956 202.088C461.796 200.126 462.711 195.899 459.644 194.682C456.578 193.464 454.4 199.112 453.694 202.088C451.105 209.663 445.181 225.646 442.195 228.973C439.21 232.301 437.051 229.481 436.345 227.654L435.841 202.088C435.639 200.532 434.61 197.36 432.109 197.116C429.608 196.873 428.915 201.276 428.882 203.508L428.276 231.713C427.873 234.655 426.4 241.533 423.738 245.51C421.075 249.487 417.585 247.912 416.173 246.626C413.752 244.225 408.023 238.794 404.473 236.278Z" fill="#718DF0" fill-opacity="0.08"/>
<path d="M335.403 321.663C331.852 319.147 329.284 320.006 328.443 320.75C327.435 323.726 330.191 326.634 331.066 327.75C335.201 331.031 343.633 338.119 344.278 340.229C345.085 342.867 350.128 349.766 354.667 352.708C358.298 355.062 364.585 355.65 367.275 355.65C367.678 355.481 369.413 355.447 373.125 356.665C376.837 357.882 380.32 355.684 381.597 354.433C384.119 352.032 389.283 346.54 389.767 343.78C390.251 341.02 393.196 334.784 394.608 332.011C400.458 328.257 412.703 319.776 414.882 315.88C417.06 311.984 413.974 311.822 412.158 312.228C406.88 315.948 395.436 323.753 391.885 325.214C388.335 326.675 388.994 323.455 389.767 321.663L402.476 300.357C403.921 297.787 406.208 292.342 403.787 291.125C401.366 289.907 398.475 293.526 397.332 295.487C393.768 302.15 386.015 315.981 383.514 318.01C381.012 320.04 381.194 317.774 381.597 316.387L391.885 287.473C392.726 285.511 393.64 281.284 390.574 280.066C387.508 278.849 385.329 284.497 384.623 287.473C382.034 295.048 376.11 311.03 373.125 314.358C370.139 317.686 367.981 314.865 367.275 313.039L366.771 287.473C366.569 285.917 365.54 282.745 363.039 282.501C360.537 282.258 359.845 286.661 359.811 288.893L359.206 317.097C358.803 320.04 357.33 326.918 354.667 330.895C352.004 334.872 348.515 333.296 347.103 332.011C344.682 329.61 338.953 324.179 335.403 321.663Z" fill="#718DF0" fill-opacity="0.08"/>
<path d="M339.508 431.41C335.958 428.894 333.389 429.753 332.549 430.497C331.541 433.472 334.297 436.381 335.171 437.497C339.307 440.777 347.739 447.866 348.384 449.976C349.191 452.614 354.234 459.513 358.773 462.455C362.404 464.809 368.691 465.397 371.381 465.397C371.784 465.228 373.519 465.194 377.231 466.412C380.942 467.629 384.425 465.431 385.703 464.18C388.225 461.779 393.389 456.286 393.873 453.527C394.357 450.767 397.302 444.531 398.714 441.758C404.564 438.004 416.809 429.523 418.987 425.627C421.166 421.731 418.08 421.569 416.264 421.974C410.986 425.694 399.541 433.5 395.991 434.961C392.441 436.422 393.1 433.202 393.873 431.41L406.581 410.104C408.027 407.534 410.313 402.089 407.893 400.872C405.472 399.654 402.581 403.273 401.437 405.234C397.874 411.896 390.121 425.728 387.619 427.757C385.118 429.786 385.3 427.521 385.703 426.134L395.991 397.219C396.831 395.258 397.746 391.031 394.68 389.813C391.613 388.596 389.435 394.243 388.729 397.219C386.14 404.795 380.216 420.777 377.231 424.105C374.245 427.433 372.087 424.612 371.381 422.786L370.876 397.219C370.675 395.664 369.646 392.492 367.144 392.248C364.643 392.005 363.95 396.408 363.917 398.64L363.312 426.844C362.908 429.786 361.436 436.665 358.773 440.642C356.11 444.619 352.62 443.043 351.208 441.758C348.788 439.357 343.059 433.926 339.508 431.41Z" fill="#718DF0" fill-opacity="0.08"/>
<path d="M-24.8176 93.3545C-28.368 90.8384 -30.9366 91.6974 -31.7771 92.4414C-32.7853 95.4173 -30.0288 98.3258 -29.1547 99.4418C-25.0193 102.722 -16.5873 109.81 -15.9418 111.921C-15.1349 114.559 -10.0918 121.458 -5.55301 124.4C-1.92198 126.753 4.36507 127.342 7.05472 127.342C7.45817 127.173 9.19299 127.139 12.9047 128.356C16.6164 129.574 20.0995 127.376 21.3771 126.124C23.8987 123.723 29.0628 118.231 29.5469 115.472C30.0311 112.712 32.9762 106.476 34.3883 103.703C40.2383 99.9491 52.4829 91.4674 54.6615 87.5715C56.8401 83.6756 53.7538 83.5133 51.9382 83.9192C46.6598 87.6392 35.2153 95.4444 31.665 96.9054C28.1147 98.3663 28.7736 95.1469 29.5469 93.3545L42.2555 72.0489C43.7012 69.4787 45.9874 64.034 43.5667 62.8165C41.146 61.5991 38.2547 65.2176 37.1115 67.1791C33.5478 73.8413 25.7949 87.673 23.2935 89.7021C20.7921 91.7312 20.9737 89.4654 21.3771 88.0788L31.665 59.1642C32.5055 57.2027 33.42 52.9754 30.3538 51.758C27.2876 50.5405 25.109 56.1882 24.403 59.1642C21.8142 66.7395 15.8902 82.722 12.9047 86.0498C9.9192 89.3775 7.76075 86.557 7.05472 84.7309L6.55041 59.1642C6.34869 57.6085 5.3199 54.4364 2.81852 54.1929C0.31715 53.9494 -0.375433 58.3525 -0.409054 60.5845L-1.01423 88.789C-1.41767 91.7312 -2.89025 98.6099 -5.55301 102.587C-8.21576 106.564 -11.7056 104.988 -13.1176 103.703C-15.5383 101.302 -21.2673 95.8706 -24.8176 93.3545Z" fill="#718DF0" fill-opacity="0.08"/>
<path d="M619.117 307.74C615.567 305.224 612.998 306.083 612.158 306.827C611.15 309.803 613.906 312.712 614.78 313.827C618.916 317.108 627.348 324.196 627.993 326.306C628.8 328.944 633.843 335.843 638.382 338.785C642.013 341.139 648.3 341.728 650.99 341.728C651.393 341.559 653.128 341.525 656.84 342.742C660.551 343.96 664.035 341.761 665.312 340.51C667.834 338.109 672.998 332.617 673.482 329.857C673.966 327.098 676.911 320.862 678.323 318.089C684.173 314.335 696.418 305.853 698.597 301.957C700.775 298.061 697.689 297.899 695.873 298.305C690.595 302.025 679.15 309.83 675.6 311.291C672.05 312.752 672.709 309.533 673.482 307.74L686.191 286.435C687.636 283.864 689.922 278.42 687.502 277.202C685.081 275.985 682.19 279.603 681.047 281.565C677.483 288.227 669.73 302.059 667.229 304.088C664.727 306.117 664.909 303.851 665.312 302.465L675.6 273.55C676.441 271.588 677.355 267.361 674.289 266.144C671.223 264.926 669.044 270.574 668.338 273.55C665.749 281.125 659.825 297.108 656.84 300.435C653.854 303.763 651.696 300.943 650.99 299.117L650.485 273.55C650.284 271.994 649.255 268.822 646.754 268.579C644.252 268.335 643.56 272.738 643.526 274.97L642.921 303.175C642.517 306.117 641.045 312.996 638.382 316.973C635.719 320.95 632.229 319.374 630.817 318.089C628.397 315.688 622.668 310.256 619.117 307.74Z" fill="#718DF0" fill-opacity="0.08"/>
<path d="M550.049 393.125C546.498 390.609 543.93 391.468 543.089 392.212C542.081 395.188 544.838 398.096 545.712 399.212C549.847 402.493 558.279 409.581 558.925 411.691C559.731 414.329 564.775 421.228 569.313 424.17C572.944 426.524 579.231 427.112 581.921 427.112C582.325 426.943 584.059 426.91 587.771 428.127C591.483 429.344 594.966 427.146 596.243 425.895C598.765 423.494 603.929 418.002 604.413 415.242C604.897 412.483 607.843 406.247 609.255 403.474C615.105 399.72 627.349 391.238 629.528 387.342C631.706 383.446 628.62 383.284 626.805 383.69C621.526 387.41 610.082 395.215 606.531 396.676C602.981 398.137 603.64 394.917 604.413 393.125L617.122 371.82C618.568 369.249 620.854 363.805 618.433 362.587C616.012 361.37 613.121 364.988 611.978 366.95C608.414 373.612 600.661 387.444 598.16 389.473C595.658 391.502 595.84 389.236 596.243 387.849L606.531 358.935C607.372 356.973 608.286 352.746 605.22 351.529C602.154 350.311 599.975 355.959 599.269 358.935C596.681 366.51 590.757 382.493 587.771 385.82C584.786 389.148 582.627 386.328 581.921 384.501L581.417 358.935C581.215 357.379 580.186 354.207 577.685 353.963C575.183 353.72 574.491 358.123 574.457 360.355L573.852 388.56C573.449 391.502 571.976 398.38 569.313 402.358C566.651 406.335 563.161 404.759 561.749 403.474C559.328 401.072 553.599 395.641 550.049 393.125Z" fill="#718DF0" fill-opacity="0.08"/>
<path d="M189.827 164.815C186.277 162.299 183.708 163.158 182.867 163.902C181.859 166.878 184.616 169.786 185.49 170.902C189.625 174.183 198.057 181.271 198.703 183.381C199.51 186.019 204.553 192.918 209.091 195.86C212.722 198.214 219.01 198.802 221.699 198.802C222.103 198.633 223.837 198.6 227.549 199.817C231.261 201.034 234.744 198.836 236.022 197.585C238.543 195.184 243.707 189.692 244.191 186.932C244.676 184.173 247.621 177.937 249.033 175.163C254.883 171.41 267.127 162.928 269.306 159.032C271.485 155.136 268.398 154.974 266.583 155.38C261.304 159.1 249.86 166.905 246.309 168.366C242.759 169.827 243.418 166.607 244.191 164.815L256.9 143.509C258.346 140.939 260.632 135.495 258.211 134.277C255.79 133.06 252.899 136.678 251.756 138.64C248.192 145.302 240.439 159.134 237.938 161.163C235.437 163.192 235.618 160.926 236.022 159.539L246.309 130.625C247.15 128.663 248.064 124.436 244.998 123.219C241.932 122.001 239.753 127.649 239.047 130.625C236.459 138.2 230.535 154.183 227.549 157.51C224.564 160.838 222.405 158.018 221.699 156.191L221.195 130.625C220.993 129.069 219.964 125.897 217.463 125.653C214.962 125.41 214.269 129.813 214.235 132.045L213.63 160.25C213.227 163.192 211.754 170.07 209.091 174.047C206.429 178.024 202.939 176.449 201.527 175.163C199.106 172.762 193.377 167.331 189.827 164.815Z" fill="#718DF0" fill-opacity="0.08"/>
<path d="M120.758 250.201C117.208 247.685 114.639 248.544 113.799 249.288C112.79 252.263 115.547 255.172 116.421 256.288C120.556 259.568 128.988 266.657 129.634 268.767C130.441 271.405 135.484 278.304 140.023 281.246C143.654 283.6 149.941 284.188 152.63 284.188C153.034 284.019 154.769 283.985 158.48 285.203C162.192 286.42 165.675 284.222 166.953 282.971C169.474 280.57 174.639 275.077 175.123 272.318C175.607 269.558 178.552 263.322 179.964 260.549C185.814 256.795 198.059 248.314 200.237 244.418C202.416 240.522 199.329 240.36 197.514 240.765C192.236 244.485 180.791 252.291 177.241 253.752C173.69 255.213 174.349 251.993 175.123 250.201L187.831 228.895C189.277 226.325 191.563 220.88 189.142 219.663C186.722 218.445 183.83 222.064 182.687 224.025C179.124 230.688 171.371 244.519 168.869 246.548C166.368 248.577 166.549 246.312 166.953 244.925L177.241 216.01C178.081 214.049 178.996 209.822 175.93 208.604C172.863 207.387 170.685 213.034 169.979 216.01C167.39 223.586 161.466 239.568 158.48 242.896C155.495 246.224 153.336 243.403 152.63 241.577L152.126 216.01C151.924 214.455 150.896 211.283 148.394 211.039C145.893 210.796 145.2 215.199 145.167 217.431L144.562 245.635C144.158 248.577 142.685 255.456 140.023 259.433C137.36 263.41 133.87 261.834 132.458 260.549C130.037 258.148 124.308 252.717 120.758 250.201Z" fill="#718DF0" fill-opacity="0.08"/>
<path d="M124.862 359.948C121.312 357.432 118.743 358.291 117.903 359.035C116.894 362.011 119.651 364.92 120.525 366.036C124.66 369.316 133.092 376.404 133.738 378.515C134.545 381.152 139.588 388.051 144.127 390.994C147.758 393.347 154.045 393.936 156.734 393.936C157.138 393.767 158.873 393.733 162.584 394.95C166.296 396.168 169.779 393.97 171.057 392.718C173.578 390.317 178.743 384.825 179.227 382.065C179.711 379.306 182.656 373.07 184.068 370.297C189.918 366.543 202.163 358.061 204.341 354.165C206.52 350.269 203.434 350.107 201.618 350.513C196.34 354.233 184.895 362.038 181.345 363.499C177.794 364.96 178.453 361.741 179.227 359.948L191.935 338.643C193.381 336.073 195.667 330.628 193.246 329.41C190.826 328.193 187.934 331.811 186.791 333.773C183.228 340.435 175.475 354.267 172.973 356.296C170.472 358.325 170.653 356.059 171.057 354.673L181.345 325.758C182.185 323.797 183.1 319.569 180.034 318.352C176.967 317.134 174.789 322.782 174.083 325.758C171.494 333.333 165.57 349.316 162.584 352.644C159.599 355.971 157.441 353.151 156.734 351.325L156.23 325.758C156.028 324.202 155 321.03 152.498 320.787C149.997 320.543 149.304 324.946 149.271 327.178L148.666 355.383C148.262 358.325 146.789 365.204 144.127 369.181C141.464 373.158 137.974 371.582 136.562 370.297C134.141 367.896 128.412 362.464 124.862 359.948Z" fill="#718DF0" fill-opacity="0.08"/>
<path d="M55.7901 445.333C52.2398 442.817 49.6712 443.676 48.8306 444.42C47.8224 447.396 50.5789 450.304 51.4531 451.42C55.5884 454.701 64.0204 461.789 64.6659 463.899C65.4728 466.537 70.5159 473.436 75.0547 476.378C78.6857 478.732 84.9728 479.321 87.6624 479.321C88.0659 479.151 89.8007 479.118 93.5124 480.335C97.2242 481.553 100.707 479.354 101.985 478.103C104.506 475.702 109.671 470.21 110.155 467.45C110.639 464.691 113.584 458.455 114.996 455.682C120.846 451.928 133.091 443.446 135.269 439.55C137.448 435.654 134.361 435.492 132.546 435.898C127.268 439.618 115.823 447.423 112.273 448.884C108.722 450.345 109.381 447.126 110.155 445.333L122.863 424.028C124.309 421.457 126.595 416.013 124.174 414.795C121.754 413.578 118.862 417.196 117.719 419.158C114.155 425.82 106.403 439.652 103.901 441.681C101.4 443.71 101.581 441.444 101.985 440.057L112.273 411.143C113.113 409.181 114.028 404.954 110.962 403.737C107.895 402.519 105.717 408.167 105.011 411.143C102.422 418.718 96.4979 434.701 93.5124 438.028C90.5269 441.356 88.3685 438.536 87.6624 436.71L87.1581 411.143C86.9564 409.587 85.9276 406.415 83.4263 406.172C80.9249 405.928 80.2323 410.331 80.1987 412.563L79.5935 440.768C79.1901 443.71 77.7175 450.589 75.0547 454.566C72.392 458.543 68.9021 456.967 67.4901 455.682C65.0694 453.281 59.3404 447.849 55.7901 445.333Z" fill="#718DF0" fill-opacity="0.08"/>
<path d="M764.693 464.586C761.143 462.07 758.574 462.929 757.734 463.673C756.726 466.649 759.482 469.558 760.356 470.674C764.492 473.954 772.924 481.042 773.569 483.153C774.376 485.791 779.419 492.689 783.958 495.632C787.589 497.985 793.876 498.574 796.566 498.574C796.969 498.405 798.704 498.371 802.416 499.588C806.127 500.806 809.61 498.608 810.888 497.356C813.41 494.955 818.574 489.463 819.058 486.704C819.542 483.944 822.487 477.708 823.899 474.935C829.749 471.181 841.994 462.699 844.172 458.803C846.351 454.908 843.265 454.745 841.449 455.151C836.171 458.871 824.726 466.676 821.176 468.137C817.626 469.598 818.285 466.379 819.058 464.586L831.766 443.281C833.212 440.711 835.498 435.266 833.078 434.048C830.657 432.831 827.766 436.45 826.622 438.411C823.059 445.073 815.306 458.905 812.804 460.934C810.303 462.963 810.485 460.697 810.888 459.311L821.176 430.396C822.016 428.435 822.931 424.207 819.865 422.99C816.798 421.772 814.62 427.42 813.914 430.396C811.325 437.971 805.401 453.954 802.416 457.282C799.43 460.609 797.272 457.789 796.566 455.963L796.061 430.396C795.86 428.84 794.831 425.668 792.329 425.425C789.828 425.181 789.135 429.584 789.102 431.816L788.497 460.021C788.093 462.963 786.621 469.842 783.958 473.819C781.295 477.796 777.805 476.22 776.393 474.935C773.973 472.534 768.244 467.103 764.693 464.586Z" fill="#718DF0" fill-opacity="0.08"/>
<path d="M604.185 59.284C600.635 56.7679 598.066 57.6269 597.226 58.3709C596.218 61.3467 598.974 64.2553 599.848 65.3713C603.983 68.6516 612.416 75.74 613.061 77.8502C613.868 80.4881 618.911 87.387 623.45 90.3292C627.081 92.6829 633.368 93.2714 636.058 93.2714C636.461 93.1023 638.196 93.0685 641.908 94.2859C645.619 95.5034 649.102 93.3052 650.38 92.0539C652.901 89.6528 658.066 84.1607 658.55 81.4011C659.034 78.6416 661.979 72.4055 663.391 69.6324C669.241 65.8786 681.486 57.3969 683.664 53.501C685.843 49.6051 682.757 49.4428 680.941 49.8486C675.663 53.5687 664.218 61.3739 660.668 62.8349C657.117 64.2958 657.776 61.0764 658.55 59.284L671.258 37.9784C672.704 35.4082 674.99 29.9635 672.57 28.746C670.149 27.5285 667.257 31.1471 666.114 33.1086C662.551 39.7708 654.798 53.6025 652.296 55.6316C649.795 57.6607 649.976 55.3949 650.38 54.0083L660.668 25.0937C661.508 23.1322 662.423 18.9049 659.357 17.6875C656.29 16.47 654.112 22.1177 653.406 25.0937C650.817 32.669 644.893 48.6515 641.908 51.9793C638.922 55.307 636.764 52.4865 636.058 50.6603L635.553 25.0937C635.351 23.538 634.323 20.3659 631.821 20.1224C629.32 19.8789 628.627 24.282 628.594 26.514L627.989 54.7185C627.585 57.6607 626.113 64.5394 623.45 68.5164C620.787 72.4934 617.297 70.9175 615.885 69.6324C613.464 67.2313 607.736 61.8001 604.185 59.284Z" fill="#718DF0" fill-opacity="0.08"/>
<path d="M535.113 144.669C531.563 142.153 528.994 143.012 528.154 143.756C527.145 146.732 529.902 149.64 530.776 150.756C534.911 154.036 543.343 161.125 543.989 163.235C544.796 165.873 549.839 172.772 554.378 175.714C558.009 178.068 564.296 178.656 566.986 178.656C567.389 178.487 569.124 178.453 572.835 179.671C576.547 180.888 580.03 178.69 581.308 177.439C583.829 175.038 588.994 169.546 589.478 166.786C589.962 164.026 592.907 157.79 594.319 155.017C600.169 151.263 612.414 142.782 614.592 138.886C616.771 134.99 613.685 134.828 611.869 135.233C606.591 138.953 595.146 146.759 591.596 148.22C588.045 149.681 588.704 146.461 589.478 144.669L602.186 123.363C603.632 120.793 605.918 115.348 603.497 114.131C601.077 112.913 598.185 116.532 597.042 118.493C593.479 125.156 585.726 138.987 583.224 141.016C580.723 143.046 580.904 140.78 581.308 139.393L591.596 110.479C592.436 108.517 593.351 104.29 590.285 103.072C587.218 101.855 585.04 107.502 584.334 110.479C581.745 118.054 575.821 134.036 572.835 137.364C569.85 140.692 567.692 137.871 566.986 136.045L566.481 110.479C566.279 108.923 565.251 105.751 562.749 105.507C560.248 105.264 559.555 109.667 559.522 111.899L558.917 140.103C558.513 143.046 557.041 149.924 554.378 153.901C551.715 157.878 548.225 156.302 546.813 155.017C544.392 152.616 538.664 147.185 535.113 144.669Z" fill="#718DF0" fill-opacity="0.08"/>
<path d="M105.823 1.74449C102.272 -0.771595 99.7036 0.0873909 98.8631 0.831394C97.8549 3.80723 100.611 6.71575 101.486 7.83174C105.621 11.1121 114.053 18.2004 114.698 20.3107C115.505 22.9485 120.548 29.8475 125.087 32.7897C128.718 35.1434 135.005 35.7319 137.695 35.7319C138.098 35.5628 139.833 35.529 143.545 36.7464C147.257 37.9639 150.74 35.7657 152.017 34.5144C154.539 32.1133 159.703 26.6212 160.187 23.8616C160.671 21.1021 163.616 14.866 165.028 12.0929C170.878 8.33906 183.123 -0.142582 185.302 -4.03849C187.48 -7.93441 184.394 -8.09671 182.578 -7.69088C177.3 -3.97086 165.856 3.83441 162.305 5.29536C158.755 6.75632 159.414 3.53685 160.187 1.74449L172.896 -19.5611C174.341 -22.1313 176.628 -27.5761 174.207 -28.7935C171.786 -30.011 168.895 -26.3924 167.752 -24.4309C164.188 -17.7687 156.435 -3.93704 153.934 -1.90794C151.432 0.121159 151.614 -2.14467 152.017 -3.53122L162.305 -32.4458C163.146 -34.4073 164.06 -38.6346 160.994 -39.8521C157.928 -41.0695 155.749 -35.4219 155.043 -32.4458C152.454 -24.8705 146.53 -8.88799 143.545 -5.56026C140.559 -2.23254 138.401 -5.05299 137.695 -6.87918L137.191 -32.4458C136.989 -34.0015 135.96 -37.1737 133.459 -37.4171C130.957 -37.6606 130.265 -33.2575 130.231 -31.0255L129.626 -2.82099C129.223 0.121204 127.75 6.99985 125.087 10.9769C122.424 14.9539 118.935 13.378 117.523 12.0929C115.102 9.69179 109.373 4.26057 105.823 1.74449Z" fill="#718DF0" fill-opacity="0.08"/>
<path d="M749.761 216.131C746.211 213.615 743.642 214.474 742.801 215.218C741.793 218.194 744.55 221.102 745.424 222.218C749.559 225.499 757.991 232.587 758.637 234.697C759.444 237.335 764.487 244.234 769.026 247.176C772.657 249.53 778.944 250.118 781.633 250.118C782.037 249.949 783.772 249.915 787.483 251.133C791.195 252.35 794.678 250.152 795.956 248.901C798.477 246.5 803.641 241.008 804.125 238.248C804.61 235.489 807.555 229.252 808.967 226.479C814.817 222.726 827.061 214.244 829.24 210.348C831.419 206.452 828.332 206.29 826.517 206.696C821.238 210.416 809.794 218.221 806.244 219.682C802.693 221.143 803.352 217.923 804.125 216.131L816.834 194.825C818.28 192.255 820.566 186.81 818.145 185.593C815.725 184.376 812.833 187.994 811.69 189.956C808.126 196.618 800.373 210.449 797.872 212.479C795.371 214.508 795.552 212.242 795.956 210.855L806.244 181.941C807.084 179.979 807.999 175.752 804.932 174.534C801.866 173.317 799.688 178.965 798.982 181.941C796.393 189.516 790.469 205.499 787.483 208.826C784.498 212.154 782.339 209.334 781.633 207.507L781.129 181.941C780.927 180.385 779.898 177.213 777.397 176.969C774.896 176.726 774.203 181.129 774.169 183.361L773.564 211.566C773.161 214.508 771.688 221.386 769.026 225.363C766.363 229.34 762.873 227.764 761.461 226.479C759.04 224.078 753.311 218.647 749.761 216.131Z" fill="#718DF0" fill-opacity="0.08"/>
<path d="M389.539 -12.1782C385.989 -14.6943 383.42 -13.8353 382.58 -13.0913C381.571 -10.1154 384.328 -7.20692 385.202 -6.09093C389.337 -2.81055 397.769 4.27777 398.415 6.38803C399.222 9.02587 404.265 15.9248 408.804 18.867C412.435 21.2208 418.722 21.8092 421.411 21.8092C421.815 21.6401 423.55 21.6063 427.261 22.8237C430.973 24.0412 434.456 21.843 435.734 20.5917C438.255 18.1906 443.419 12.6985 443.904 9.93896C444.388 7.17939 447.333 0.943314 448.745 -1.82978C454.595 -5.58361 466.84 -14.0653 469.018 -17.9612C471.197 -21.8571 468.11 -22.0194 466.295 -21.6135C461.016 -17.8935 449.572 -10.0883 446.022 -8.6273C442.471 -7.16635 443.13 -10.3858 443.904 -12.1782L456.612 -33.4838C458.058 -36.054 460.344 -41.4987 457.923 -42.7162C455.503 -43.9336 452.611 -40.3151 451.468 -38.3536C447.904 -31.6914 440.152 -17.8597 437.65 -15.8306C435.149 -13.8015 435.33 -16.0673 435.734 -17.4539L446.022 -46.3685C446.862 -48.33 447.777 -52.5573 444.71 -53.7747C441.644 -54.9922 439.466 -49.3445 438.76 -46.3685C436.171 -38.7932 430.247 -22.8107 427.261 -19.4829C424.276 -16.1552 422.117 -18.9757 421.411 -20.8018L420.907 -46.3685C420.705 -47.9242 419.677 -51.0963 417.175 -51.3398C414.674 -51.5833 413.981 -47.1802 413.948 -44.9481L413.342 -16.7437C412.939 -13.8015 411.466 -6.92282 408.804 -2.94578C406.141 1.03125 402.651 -0.544678 401.239 -1.82978C398.818 -4.23088 393.089 -9.66209 389.539 -12.1782Z" fill="#718DF0" fill-opacity="0.08"/>
<path d="M320.467 73.2066C316.917 70.6906 314.348 71.5495 313.508 72.2936C312.499 75.2694 315.256 78.1779 316.13 79.2939C320.265 82.5743 328.697 89.6626 329.343 91.7729C330.15 94.4107 335.193 101.31 339.732 104.252C343.363 106.606 349.65 107.194 352.339 107.194C352.743 107.025 354.478 106.991 358.189 108.209C361.901 109.426 365.384 107.228 366.662 105.977C369.183 103.575 374.347 98.0834 374.832 95.3238C375.316 92.5642 378.261 86.3281 379.673 83.555C385.523 79.8012 397.768 71.3196 399.946 67.4237C402.125 63.5278 399.038 63.3654 397.223 63.7713C391.944 67.4913 380.5 75.2966 376.95 76.7575C373.399 78.2185 374.058 74.999 374.832 73.2066L387.54 51.901C388.986 49.3309 391.272 43.8861 388.851 42.6686C386.431 41.4512 383.539 45.0697 382.396 47.0312C378.832 53.6934 371.08 67.5251 368.578 69.5542C366.077 71.5833 366.258 69.3175 366.662 67.9309L376.95 39.0163C377.79 37.0549 378.705 32.8276 375.638 31.6101C372.572 30.3926 370.394 36.0403 369.688 39.0163C367.099 46.5916 361.175 62.5742 358.189 65.9019C355.204 69.2296 353.045 66.4092 352.339 64.583L351.835 39.0163C351.633 37.4607 350.605 34.2885 348.103 34.045C345.602 33.8015 344.909 38.2047 344.876 40.4367L344.27 68.6412C343.867 71.5834 342.394 78.462 339.732 82.439C337.069 86.4161 333.579 84.8401 332.167 83.555C329.746 81.1539 324.017 75.7227 320.467 73.2066Z" fill="#718DF0" fill-opacity="0.08"/>
<path d="M-1.49883 -33.9862C-5.04917 -36.5023 -7.61778 -35.6433 -8.4583 -34.8993C-9.4665 -31.9235 -6.71003 -29.0149 -5.83589 -27.8989C-1.70055 -24.6186 6.73149 -17.5302 7.37701 -15.42C8.1839 -12.7821 13.227 -5.88321 17.7658 -2.94102C21.3968 -0.587257 27.6839 0.00118256 30.3735 0.00118256C30.777 -0.167908 32.5118 -0.201729 36.2235 1.01573C39.9352 2.23319 43.4183 0.034996 44.6959 -1.21628C47.2174 -3.61738 52.3816 -9.10947 52.8657 -11.8691C53.3498 -14.6286 56.295 -20.8647 57.7071 -23.6378C63.5571 -27.3916 75.8017 -35.8733 77.9803 -39.7692C80.1589 -43.6651 77.0725 -43.8274 75.257 -43.4216C69.9786 -39.7015 58.5341 -31.8963 54.9838 -30.4353C51.4335 -28.9744 52.0924 -32.1938 52.8657 -33.9862L65.5743 -55.2918C67.02 -57.862 69.3062 -63.3067 66.8855 -64.5242C64.4648 -65.7417 61.5734 -62.1231 60.4303 -60.1616C56.8666 -53.4994 49.1136 -39.6677 46.6123 -37.6386C44.1109 -35.6095 44.2924 -37.8754 44.6959 -39.2619L54.9838 -68.1765C55.8243 -70.138 56.7388 -74.3653 53.6726 -75.5827C50.6064 -76.8002 48.4278 -71.1525 47.7217 -68.1765C45.133 -60.6012 39.209 -44.6187 36.2235 -41.2909C33.238 -37.9632 31.0795 -40.7837 30.3735 -42.6099L29.8692 -68.1765C29.6675 -69.7322 28.6387 -72.9043 26.1373 -73.1478C23.6359 -73.3913 22.9434 -68.9882 22.9097 -66.7562L22.3046 -38.5517C21.9011 -35.6095 20.4285 -28.7308 17.7658 -24.7538C15.103 -20.7768 11.6132 -22.3527 10.2011 -23.6378C7.78046 -26.0389 2.05151 -31.4701 -1.49883 -33.9862Z" fill="#718DF0" fill-opacity="0.08"/>
<path d="M707.403 -14.7321C703.852 -17.2482 701.284 -16.3892 700.443 -15.6452C699.435 -12.6694 702.191 -9.76087 703.066 -8.64488C707.201 -5.36451 715.633 1.72382 716.278 3.83408C717.085 6.47191 722.128 13.3708 726.667 16.313C730.298 18.6668 736.585 19.2552 739.275 19.2552C739.678 19.0862 741.413 19.0523 745.125 20.2698C748.837 21.4873 752.32 19.2891 753.597 18.0378C756.119 15.6367 761.283 10.1446 761.767 7.38501C762.251 4.62543 765.196 -1.61064 766.608 -4.38373C772.458 -8.13756 784.703 -16.6192 786.882 -20.5151C789.06 -24.411 785.974 -24.5733 784.158 -24.1675C778.88 -20.4475 767.436 -12.6422 763.885 -11.1813C760.335 -9.72031 760.994 -12.9398 761.767 -14.7321L774.476 -36.0377C775.921 -38.6079 778.208 -44.0527 775.787 -45.2701C773.366 -46.4876 770.475 -42.869 769.332 -40.9076C765.768 -34.2454 758.015 -20.4137 755.514 -18.3846C753.012 -16.3555 753.194 -18.6213 753.597 -20.0078L763.885 -48.9225C764.726 -50.8839 765.64 -55.1112 762.574 -56.3287C759.508 -57.5461 757.329 -51.8985 756.623 -48.9225C754.034 -41.3472 748.11 -25.3646 745.125 -22.0369C742.139 -18.7092 739.981 -21.5296 739.275 -23.3558L738.771 -48.9225C738.569 -50.4781 737.54 -53.6503 735.039 -53.8938C732.537 -54.1373 731.845 -49.7341 731.811 -47.5021L731.206 -19.2976C730.803 -16.3554 729.33 -9.47677 726.667 -5.49974C724.004 -1.5227 720.515 -3.09863 719.103 -4.38373C716.682 -6.78483 710.953 -12.216 707.403 -14.7321Z" fill="#718DF0" fill-opacity="0.08"/>
<path d="M711.508 95.0147C707.958 92.4986 705.389 93.3576 704.549 94.1016C703.541 97.0774 706.297 99.986 707.171 101.102C711.307 104.382 719.739 111.471 720.384 113.581C721.191 116.219 726.234 123.118 730.773 126.06C734.404 128.414 740.691 129.002 743.381 129.002C743.784 128.833 745.519 128.799 749.231 130.017C752.942 131.234 756.425 129.036 757.703 127.785C760.225 125.384 765.389 119.891 765.873 117.132C766.357 114.372 769.302 108.136 770.714 105.363C776.564 101.609 788.809 93.1276 790.987 89.2317C793.166 85.3358 790.08 85.1735 788.264 85.5793C782.986 89.2993 771.541 97.1046 767.991 98.5656C764.441 100.027 765.1 96.807 765.873 95.0147L778.581 73.7091C780.027 71.1389 782.313 65.6941 779.893 64.4767C777.472 63.2592 774.581 66.8778 773.437 68.8393C769.874 75.5015 762.121 89.3332 759.619 91.3623C757.118 93.3914 757.3 91.1255 757.703 89.739L767.991 60.8244C768.831 58.8629 769.746 54.6356 766.68 53.4182C763.613 52.2007 761.435 57.8484 760.729 60.8244C758.14 68.3997 752.216 84.3822 749.231 87.7099C746.245 91.0377 744.087 88.2172 743.381 86.391L742.876 60.8244C742.675 59.2687 741.646 56.0965 739.144 55.8531C736.643 55.6096 735.95 60.0127 735.917 62.2447L735.312 90.4492C734.908 93.3914 733.436 100.27 730.773 104.247C728.11 108.224 724.62 106.648 723.208 105.363C720.788 102.962 715.059 97.5308 711.508 95.0147Z" fill="#718DF0" fill-opacity="0.08"/>
<path d="M642.44 180.4C638.889 177.884 636.321 178.743 635.48 179.487C634.472 182.463 637.228 185.372 638.102 186.488C642.238 189.768 650.67 196.856 651.315 198.967C652.122 201.604 657.165 208.503 661.704 211.446C665.335 213.799 671.622 214.388 674.312 214.388C674.715 214.219 676.45 214.185 680.162 215.402C683.874 216.62 687.357 214.422 688.634 213.17C691.156 210.769 696.32 205.277 696.804 202.517C697.288 199.758 700.233 193.522 701.645 190.749C707.495 186.995 719.74 178.513 721.919 174.617C724.097 170.721 721.011 170.559 719.195 170.965C713.917 174.685 702.472 182.49 698.922 183.951C695.372 185.412 696.031 182.193 696.804 180.4L709.513 159.095C710.958 156.525 713.245 151.08 710.824 149.862C708.403 148.645 705.512 152.263 704.369 154.225C700.805 160.887 693.052 174.719 690.551 176.748C688.049 178.777 688.231 176.511 688.634 175.125L698.922 146.21C699.763 144.249 700.677 140.021 697.611 138.804C694.545 137.586 692.366 143.234 691.66 146.21C689.071 153.785 683.147 169.768 680.162 173.096C677.176 176.423 675.018 173.603 674.312 171.777L673.808 146.21C673.606 144.654 672.577 141.482 670.076 141.239C667.574 140.995 666.882 145.398 666.848 147.63L666.243 175.835C665.839 178.777 664.367 185.656 661.704 189.633C659.041 193.61 655.552 192.034 654.139 190.749C651.719 188.348 645.99 182.916 642.44 180.4Z" fill="#718DF0" fill-opacity="0.08"/>
<path d="M213.146 37.476C209.595 34.9599 207.027 35.8189 206.186 36.5629C205.178 39.5387 207.934 42.4472 208.809 43.5632C212.944 46.8436 221.376 53.9319 222.021 56.0422C222.828 58.68 227.871 65.5789 232.41 68.5211C236.041 70.8749 242.328 71.4633 245.018 71.4633C245.421 71.2943 247.156 71.2604 250.868 72.4779C254.58 73.6954 258.063 71.4972 259.34 70.2459C261.862 67.8448 267.026 62.3527 267.51 59.5931C267.994 56.8335 270.939 50.5975 272.352 47.8244C278.202 44.0705 290.446 35.5889 292.625 31.693C294.803 27.7971 291.717 27.6348 289.901 28.0406C284.623 31.7606 273.179 39.5659 269.628 41.0268C266.078 42.4878 266.737 39.2683 267.51 37.476L280.219 16.1704C281.664 13.6002 283.951 8.15542 281.53 6.93796C279.109 5.7205 276.218 9.33906 275.075 11.3005C271.511 17.9627 263.758 31.7944 261.257 33.8235C258.755 35.8526 258.937 33.5868 259.34 32.2003L269.628 3.28564C270.469 1.32417 271.383 -2.90312 268.317 -4.12058C265.251 -5.33804 263.072 0.309625 262.366 3.28564C259.777 10.8609 253.853 26.8435 250.868 30.1712C247.882 33.4989 245.724 30.6785 245.018 28.8523L244.514 3.28564C244.312 1.72999 243.283 -1.44218 240.782 -1.68567C238.28 -1.92916 237.588 2.47399 237.554 4.70599L236.949 32.9105C236.546 35.8527 235.073 42.7313 232.41 46.7084C229.747 50.6854 226.258 49.1095 224.846 47.8244C222.425 45.4233 216.696 39.9921 213.146 37.476Z" fill="#718DF0" fill-opacity="0.08"/>
<path d="M496.862 23.5533C493.312 21.0372 490.743 21.8962 489.903 22.6402C488.894 25.6161 491.651 28.5246 492.525 29.6406C496.66 32.921 505.092 40.0093 505.738 42.1195C506.545 44.7574 511.588 51.6563 516.127 54.5985C519.758 56.9523 526.045 57.5407 528.734 57.5407C529.138 57.3716 530.873 57.3378 534.584 58.5553C538.296 59.7727 541.779 57.5745 543.057 56.3232C545.578 53.9221 550.743 48.43 551.227 45.6705C551.711 42.9109 554.656 36.6748 556.068 33.9017C561.918 30.1479 574.163 21.6663 576.341 17.7703C578.52 13.8744 575.434 13.7121 573.618 14.118C568.34 17.838 556.895 25.6432 553.345 27.1042C549.794 28.5652 550.453 25.3457 551.227 23.5533L563.935 2.24773C565.381 -0.322464 567.667 -5.76722 565.246 -6.98468C562.826 -8.20214 559.934 -4.58357 558.791 -2.62211C555.228 4.0401 547.475 17.8718 544.973 19.9009C542.472 21.93 542.653 19.6642 543.057 18.2776L553.345 -10.637C554.185 -12.5985 555.1 -16.8258 552.034 -18.0432C548.967 -19.2607 546.789 -13.613 546.083 -10.637C543.494 -3.06169 537.57 12.9209 534.584 16.2486C531.599 19.5763 529.441 16.7558 528.734 14.9297L528.23 -10.637C528.028 -12.1926 527 -15.3648 524.498 -15.6083C521.997 -15.8518 521.304 -11.4487 521.271 -9.21664L520.666 18.9878C520.262 21.93 518.789 28.8087 516.127 32.7857C513.464 36.7628 509.974 35.1868 508.562 33.9017C506.141 31.5006 500.412 26.0694 496.862 23.5533Z" fill="#718DF0" fill-opacity="0.08"/>
<path d="M427.79 108.938C424.24 106.422 421.671 107.281 420.831 108.025C419.822 111.001 422.579 113.909 423.453 115.025C427.588 118.306 436.02 125.394 436.666 127.504C437.473 130.142 442.516 137.041 447.055 139.983C450.686 142.337 456.973 142.926 459.662 142.926C460.066 142.756 461.801 142.723 465.512 143.94C469.224 145.158 472.707 142.959 473.985 141.708C476.506 139.307 481.671 133.815 482.155 131.055C482.639 128.296 485.584 122.06 486.996 119.287C492.846 115.533 505.091 107.051 507.269 103.155C509.448 99.2593 506.361 99.097 504.546 99.5028C499.268 103.223 487.823 111.028 484.273 112.489C480.722 113.95 481.381 110.731 482.155 108.938L494.863 87.6326C496.309 85.0624 498.595 79.6176 496.174 78.4002C493.754 77.1827 490.862 80.8013 489.719 82.7627C486.155 89.4249 478.403 103.257 475.901 105.286C473.4 107.315 473.581 105.049 473.985 103.662L484.273 74.7478C485.113 72.7864 486.028 68.5591 482.962 67.3416C479.895 66.1242 477.717 71.7718 477.011 74.7478C474.422 82.3231 468.498 98.3057 465.512 101.633C462.527 104.961 460.368 102.141 459.662 100.314L459.158 74.7478C458.956 73.1922 457.928 70.02 455.426 69.7765C452.925 69.533 452.232 73.9362 452.199 76.1682L451.594 104.373C451.19 107.315 449.717 114.194 447.055 118.171C444.392 122.148 440.902 120.572 439.49 119.287C437.069 116.885 431.34 111.454 427.79 108.938Z" fill="#718DF0" fill-opacity="0.08"/>
<circle cx="388" cy="229" r="137" fill="#CDD7FA"/>
<path d="M355.282 142.552C360.376 123.451 414.419 108.027 437.234 104.844L420.013 357.438L405.687 351.07C397.021 351.424 376.93 351.919 365.893 351.07C352.098 350.009 351.037 333.561 353.159 326.133C355.282 318.705 351.568 315.521 346.792 312.338C342.972 309.791 343.432 305.617 344.14 303.849L349.445 298.543C348.738 298.012 346.368 296.421 342.548 294.298C337.773 291.645 342.017 285.278 344.14 282.095C345.837 279.548 344.847 275.374 344.14 273.605C341.84 272.544 335.969 269.361 330.875 265.116C325.781 260.872 328.753 254.858 330.875 252.382C340.249 242.478 359.314 222.033 360.588 219.486C361.862 216.939 361.119 210.997 360.588 208.344L355.282 204.099L364.418 203.172L360.588 192.957L363.24 179.692C362.356 180.4 359.102 182.77 353.159 186.59L360.588 174.387C356.697 171.734 350.189 161.653 355.282 142.552Z" fill="white"/>
<path d="M428.5 138.838C415.341 127.377 431.045 109.973 437.235 104.844C467.613 120.401 521.631 166.851 521.631 229C521.631 295.254 465.484 351.402 425.848 355.297C422.877 353.599 419.305 345.283 418.951 342.453C421.781 337.855 425.848 330.484 425.848 328.786C425.848 326.664 424.787 323.48 418.951 316.052C414.282 310.11 417.713 305.794 420.012 304.379C421.427 304.379 423.118 303.479 424.392 301.781C425.665 300.083 422.665 297.854 422.134 297.5C418.951 296.793 416.51 295.784 417.359 291.115C418.42 285.278 418.42 278.381 417.359 275.728C416.298 273.075 420.012 272.544 404.094 269.361C391.36 266.814 392.775 258.395 395.074 254.505C405.332 241.417 425.317 214.074 423.195 209.405C421.073 204.736 419.127 195.433 418.42 191.365L438.582 148.919C440.704 150.334 441.658 150.298 428.5 138.838Z" fill="#CDD7FA"/>
</g>
<defs>
<clipPath id="clip0_758_785">
<rect width="776" height="459" rx="10" fill="white"/>
</clipPath>
</defs>
</svg>
