<svg width="1031" height="650" viewBox="0 0 1031 650" fill="none" xmlns="http://www.w3.org/2000/svg">
<g clip-path="url(#clip0_674_731)">
<rect width="1031" height="650" rx="10" fill="white"/>
<path d="M58.4323 -73.2224C54.1935 -79.0011 49.7329 -78.9951 48.0325 -78.2698C44.9089 -74.1443 47.7031 -68.1654 48.4884 -65.9668C53.2437 -58.6896 62.732 -43.2268 62.6428 -39.5935C62.5314 -35.0518 66.8226 -21.648 72.3843 -14.6893C76.8336 -9.12233 86.3516 -4.93209 90.5544 -3.53284C91.2728 -3.58717 94.0012 -2.7375 99.1678 1.09586C104.334 4.92921 110.921 3.30637 113.568 2.01577C118.757 -0.424381 129.684 -6.31974 131.876 -10.38C134.068 -14.4402 141.914 -22.6525 145.564 -26.2511C156.658 -29.0734 180.203 -35.9567 185.634 -40.9111C191.066 -45.8654 186.327 -47.7247 183.279 -48.035C173.096 -44.9682 151.152 -38.7255 144.844 -38.2896C138.537 -37.8538 141.241 -42.5417 143.382 -44.9401L174.324 -71.6207C177.92 -74.8847 184.325 -82.2033 181.176 -85.365C178.027 -88.5268 171.626 -84.3766 168.82 -81.9063C159.785 -73.35 140.475 -55.77 135.511 -53.9006C130.546 -52.0313 132.009 -55.4774 133.361 -57.4341L164.479 -97.2638C166.813 -99.8915 170.441 -106.021 166.283 -109.519C162.125 -113.016 155.783 -105.325 153.131 -101.042C145.145 -90.5515 127.574 -68.6591 121.177 -65.0123C114.781 -61.3656 112.875 -66.8957 112.722 -70.1166L125.235 -110.329C125.729 -112.865 125.772 -118.357 121.99 -120.039C118.208 -121.721 114.835 -115.201 113.621 -111.73L98.0025 -67.9731C95.8414 -63.5855 89.9618 -53.6031 83.732 -48.7738C77.5022 -43.9446 72.8689 -48.2227 71.331 -50.9654C68.7976 -55.9766 62.6711 -67.4438 58.4323 -73.2224Z" fill="#718DF0" fill-opacity="0.1"/>
<path d="M-55.3232 67.401C-59.562 61.6224 -64.0226 61.6284 -65.723 62.3537C-68.8466 66.4792 -66.0524 72.4581 -65.2671 74.6566C-60.5118 81.9339 -51.0235 97.3967 -51.1127 101.03C-51.2241 105.572 -46.9329 118.975 -41.3712 125.934C-36.9219 131.501 -27.4039 135.691 -23.2011 137.091C-22.4827 137.036 -19.7543 137.886 -14.5877 141.719C-9.42119 145.553 -2.83494 143.93 -0.187635 142.639C5.00166 140.199 15.9283 134.304 18.1204 130.243C20.3125 126.183 28.1589 117.971 31.808 114.372C42.9021 111.55 66.4479 104.667 71.879 99.7124C77.3101 94.7581 72.5718 92.8988 69.5237 92.5885C59.3404 95.6553 37.3967 101.898 31.089 102.334C24.7812 102.77 27.4858 98.0818 29.6265 95.6834L60.5688 69.0028C64.165 65.7387 70.5699 58.4201 67.4207 55.2584C64.2715 52.0967 57.871 56.2469 55.0644 58.7171C46.0297 67.2735 26.7193 84.8535 21.7551 86.7228C16.7908 88.5922 18.2533 85.1461 19.605 83.1893L50.7233 43.3596C53.0571 40.7319 56.6852 34.6021 52.5274 31.1046C48.3695 27.6071 42.0271 35.2987 39.3756 39.5817C31.3895 50.072 13.818 71.9644 7.42169 75.6111C1.02534 79.2578 -0.880126 73.7277 -1.03332 70.5068L11.4793 30.2941C11.9734 27.7584 12.0161 22.2663 8.23414 20.5845C4.45218 18.9028 1.07928 25.4228 -0.134425 28.893L-15.753 72.6504C-17.9141 77.038 -23.7937 87.0204 -30.0235 91.8496C-36.2532 96.6789 -40.8866 92.4008 -42.4245 89.6581C-44.9579 84.6469 -51.0844 73.1797 -55.3232 67.401Z" fill="#718DF0" fill-opacity="0.1"/>
<path d="M-48.5621 248.145C-52.8009 242.367 -57.2615 242.373 -58.9619 243.098C-62.0855 247.224 -59.2913 253.202 -58.506 255.401C-53.7507 262.678 -44.2624 278.141 -44.3516 281.774C-44.463 286.316 -40.1718 299.72 -34.6101 306.679C-30.1608 312.246 -20.6428 316.436 -16.44 317.835C-15.7216 317.781 -12.9932 318.63 -7.82663 322.464C-2.66008 326.297 3.92617 324.674 6.57347 323.384C11.7628 320.944 22.6894 315.048 24.8815 310.988C27.0737 306.928 34.92 298.715 38.5691 295.117C49.6632 292.294 73.209 285.411 78.6401 280.457C84.0712 275.502 79.3329 273.643 76.2848 273.333C66.1015 276.4 44.1579 282.642 37.8501 283.078C31.5423 283.514 34.2469 278.826 36.3876 276.428L67.3299 249.747C70.9261 246.483 77.331 239.165 74.1818 236.003C71.0327 232.841 64.6321 236.991 61.8255 239.462C52.7908 248.018 33.4804 265.598 28.5162 267.467C23.5519 269.337 25.0144 265.891 26.3661 263.934L57.4844 224.104C59.8182 221.476 63.4463 215.347 59.2885 211.849C55.1306 208.351 48.7882 216.043 46.1367 220.326C38.1506 230.816 20.5791 252.709 14.1828 256.356C7.78645 260.002 5.88098 254.472 5.72779 251.251L18.2404 211.039C18.7345 208.503 18.7772 203.011 14.9952 201.329C11.2133 199.647 7.84039 206.167 6.62668 209.637L-8.99192 253.395C-11.153 257.782 -17.0325 267.765 -23.2623 272.594C-29.4921 277.423 -34.1255 273.145 -35.6634 270.403C-38.1968 265.391 -44.3233 253.924 -48.5621 248.145Z" fill="#718DF0" fill-opacity="0.1"/>
<path d="M1005.19 420.477C1000.95 414.698 996.493 414.704 994.793 415.429C991.669 419.555 994.463 425.534 995.249 427.732C1000 435.009 1009.49 450.472 1009.4 454.106C1009.29 458.647 1013.58 472.051 1019.14 479.01C1023.59 484.577 1033.11 488.767 1037.31 490.166C1038.03 490.112 1040.76 490.962 1045.93 494.795C1051.09 498.628 1057.68 497.005 1060.33 495.715C1065.52 493.275 1076.44 487.379 1078.64 483.319C1080.83 479.259 1088.67 471.047 1092.32 467.448C1103.42 464.626 1126.96 457.742 1132.39 452.788C1137.83 447.834 1133.09 445.974 1130.04 445.664C1119.86 448.731 1097.91 454.974 1091.6 455.409C1085.3 455.845 1088 451.157 1090.14 448.759L1121.08 422.078C1124.68 418.814 1131.09 411.496 1127.94 408.334C1124.79 405.172 1118.39 409.322 1115.58 411.793C1106.55 420.349 1087.24 437.929 1082.27 439.798C1077.31 441.668 1078.77 438.222 1080.12 436.265L1111.24 396.435C1113.57 393.808 1117.2 387.678 1113.04 384.18C1108.89 380.683 1102.54 388.374 1099.89 392.657C1091.91 403.148 1074.33 425.04 1067.94 428.687C1061.54 432.333 1059.64 426.803 1059.48 423.582L1072 383.37C1072.49 380.834 1072.53 375.342 1068.75 373.66C1064.97 371.978 1061.6 378.498 1060.38 381.969L1044.76 425.726C1042.6 430.114 1036.72 440.096 1030.49 444.925C1024.26 449.754 1019.63 445.476 1018.09 442.734C1015.56 437.722 1009.43 426.255 1005.19 420.477Z" fill="#718DF0" fill-opacity="0.1"/>
<path d="M1011.95 601.221C1007.71 595.442 1003.25 595.448 1001.55 596.174C998.428 600.299 1001.22 606.278 1002.01 608.477C1006.76 615.754 1016.25 631.217 1016.16 634.85C1016.05 639.392 1020.34 652.795 1025.9 659.754C1030.35 665.321 1039.87 669.511 1044.07 670.911C1044.79 670.856 1047.52 671.706 1052.69 675.539C1057.85 679.373 1064.44 677.75 1067.09 676.459C1072.28 674.019 1083.2 668.124 1085.39 664.063C1087.59 660.003 1095.43 651.791 1099.08 648.192C1110.18 645.37 1133.72 638.487 1139.15 633.532C1144.58 628.578 1139.85 626.719 1136.8 626.408C1126.61 629.475 1104.67 635.718 1098.36 636.154C1092.06 636.59 1094.76 631.902 1096.9 629.503L1127.84 602.823C1131.44 599.559 1137.84 592.24 1134.7 589.078C1131.55 585.917 1125.15 590.067 1122.34 592.537C1113.3 601.093 1093.99 618.673 1089.03 620.543C1084.07 622.412 1085.53 618.966 1086.88 617.009L1118 577.18C1120.33 574.552 1123.96 568.422 1119.8 564.925C1115.64 561.427 1109.3 569.119 1106.65 573.402C1098.66 583.892 1081.09 605.784 1074.7 609.431C1068.3 613.078 1066.39 607.548 1066.24 604.327L1078.75 564.114C1079.25 561.578 1079.29 556.086 1075.51 554.405C1071.73 552.723 1068.35 559.243 1067.14 562.713L1051.52 606.47C1049.36 610.858 1043.48 620.84 1037.25 625.67C1031.02 630.499 1026.39 626.221 1024.85 623.478C1022.32 618.467 1016.19 607 1011.95 601.221Z" fill="#718DF0" fill-opacity="0.1"/>
<path d="M411.936 44.4711C407.697 38.6925 403.237 38.6985 401.536 39.4238C398.413 43.5493 401.207 49.5281 401.992 51.7267C406.747 59.004 416.236 74.4668 416.146 78.1001C416.035 82.6418 420.326 96.0456 425.888 103.004C430.337 108.571 439.855 112.761 444.058 114.161C444.776 114.106 447.505 114.956 452.671 118.789C457.838 122.623 464.424 121 467.071 119.709C472.261 117.269 483.187 111.374 485.379 107.314C487.572 103.253 495.418 95.0411 499.067 91.4425C510.161 88.6201 533.707 81.7368 539.138 76.7825C544.569 71.8282 539.831 69.9689 536.783 69.6586C526.599 72.7254 504.656 78.9681 498.348 79.404C492.04 79.8398 494.745 75.1519 496.886 72.7535L527.828 46.0729C531.424 42.8088 537.829 35.4902 534.68 32.3285C531.531 29.1668 525.13 33.317 522.323 35.7872C513.289 44.3436 493.978 61.9236 489.014 63.7929C484.05 65.6623 485.512 62.2162 486.864 60.2594L517.982 20.4297C520.316 17.802 523.944 11.6722 519.786 8.17469C515.629 4.67715 509.286 12.3688 506.635 16.6518C498.649 27.1421 481.077 49.0345 474.681 52.6812C468.284 56.3279 466.379 50.7978 466.226 47.5769L478.738 7.36424C479.232 4.82845 479.275 -0.663576 475.493 -2.34536C471.711 -4.02714 468.338 2.49289 467.125 5.96313L451.506 49.7205C449.345 54.1081 443.465 64.0905 437.236 68.9197C431.006 73.749 426.373 69.4709 424.835 66.7282C422.301 61.717 416.175 50.2498 411.936 44.4711Z" fill="#718DF0" fill-opacity="0.1"/>
<path d="M298.18 185.092C293.942 179.313 289.481 179.319 287.781 180.045C284.657 184.17 287.451 190.149 288.236 192.348C292.992 199.625 302.48 215.088 302.391 218.721C302.279 223.263 306.571 236.666 312.132 243.625C316.582 249.192 326.1 253.382 330.302 254.782C331.021 254.727 333.749 255.577 338.916 259.41C344.082 263.244 350.669 261.621 353.316 260.33C358.505 257.89 369.432 251.995 371.624 247.934C373.816 243.874 381.662 235.662 385.312 232.063C396.406 229.241 419.951 222.358 425.383 217.403C430.814 212.449 426.075 210.59 423.027 210.279C412.844 213.346 390.9 219.589 384.593 220.025C378.285 220.461 380.989 215.773 383.13 213.374L414.072 186.694C417.669 183.43 424.073 176.111 420.924 172.949C417.775 169.788 411.375 173.938 408.568 176.408C399.533 184.964 380.223 202.544 375.259 204.414C370.294 206.283 371.757 202.837 373.109 200.88L404.227 161.051C406.561 158.423 410.189 152.293 406.031 148.796C401.873 145.298 395.531 152.99 392.879 157.273C384.893 167.763 367.322 189.655 360.925 193.302C354.529 196.949 352.623 191.419 352.47 188.198L364.983 147.985C365.477 145.449 365.52 139.957 361.738 138.276C357.956 136.594 354.583 143.114 353.369 146.584L337.751 190.341C335.589 194.729 329.71 204.711 323.48 209.541C317.25 214.37 312.617 210.092 311.079 207.349C308.546 202.338 302.419 190.871 298.18 185.092Z" fill="#718DF0" fill-opacity="0.1"/>
<path d="M304.941 365.838C300.703 360.059 296.242 360.065 294.542 360.79C291.418 364.916 294.212 370.895 294.998 373.093C299.753 380.371 309.241 395.833 309.152 399.467C309.041 404.008 313.332 417.412 318.893 424.371C323.343 429.938 332.861 434.128 337.064 435.527C337.782 435.473 340.51 436.323 345.677 440.156C350.844 443.989 357.43 442.367 360.077 441.076C365.266 438.636 376.193 432.74 378.385 428.68C380.577 424.62 388.424 416.408 392.073 412.809C403.167 409.987 426.713 403.103 432.144 398.149C437.575 393.195 432.836 391.336 429.788 391.025C419.605 394.092 397.661 400.335 391.354 400.771C385.046 401.206 387.75 396.519 389.891 394.12L420.834 367.44C424.43 364.175 430.835 356.857 427.685 353.695C424.536 350.533 418.136 354.684 415.329 357.154C406.294 365.71 386.984 383.29 382.02 385.16C377.056 387.029 378.518 383.583 379.87 381.626L410.988 341.796C413.322 339.169 416.95 333.039 412.792 329.541C408.634 326.044 402.292 333.735 399.64 338.018C391.654 348.509 374.083 370.401 367.686 374.048C361.29 377.695 359.385 372.164 359.231 368.944L371.744 328.731C372.238 326.195 372.281 320.703 368.499 319.021C364.717 317.339 361.344 323.86 360.13 327.33L344.512 371.087C342.351 375.475 336.471 385.457 330.241 390.286C324.011 395.116 319.378 390.838 317.84 388.095C315.307 383.084 309.18 371.616 304.941 365.838Z" fill="#718DF0" fill-opacity="0.1"/>
<path d="M191.189 506.459C186.95 500.68 182.489 500.686 180.789 501.411C177.665 505.537 180.459 511.516 181.245 513.714C186 520.992 195.488 536.454 195.399 540.088C195.288 544.629 199.579 558.033 205.14 564.992C209.59 570.559 219.108 574.749 223.311 576.148C224.029 576.094 226.757 576.944 231.924 580.777C237.091 584.61 243.677 582.988 246.324 581.697C251.513 579.257 262.44 573.361 264.632 569.301C266.824 565.241 274.671 557.029 278.32 553.43C289.414 550.608 312.96 543.724 318.391 538.77C323.822 533.816 319.083 531.957 316.035 531.646C305.852 534.713 283.908 540.956 277.601 541.392C271.293 541.827 273.997 537.14 276.138 534.741L307.081 508.061C310.677 504.796 317.082 497.478 313.932 494.316C310.783 491.154 304.383 495.305 301.576 497.775C292.541 506.331 273.231 523.911 268.267 525.781C263.303 527.65 264.765 524.204 266.117 522.247L297.235 482.417C299.569 479.79 303.197 473.66 299.039 470.162C294.881 466.665 288.539 474.356 285.887 478.639C277.901 489.13 260.33 511.022 253.933 514.669C247.537 518.316 245.632 512.785 245.478 509.565L257.991 469.352C258.485 466.816 258.528 461.324 254.746 459.642C250.964 457.96 247.591 464.481 246.377 467.951L230.759 511.708C228.598 516.096 222.718 526.078 216.488 530.907C210.258 535.737 205.625 531.459 204.087 528.716C201.554 523.705 195.427 512.237 191.189 506.459Z" fill="#718DF0" fill-opacity="0.1"/>
<path d="M765.439 162.163C761.201 156.385 756.74 156.391 755.04 157.116C751.916 161.242 754.71 167.22 755.496 169.419C760.251 176.696 769.739 192.159 769.65 195.792C769.538 200.334 773.83 213.738 779.391 220.697C783.841 226.264 793.359 230.454 797.562 231.853C798.28 231.799 801.008 232.648 806.175 236.482C811.341 240.315 817.928 238.692 820.575 237.402C825.764 234.961 836.691 229.066 838.883 225.006C841.075 220.946 848.921 212.733 852.571 209.135C863.665 206.312 887.21 199.429 892.642 194.475C898.073 189.52 893.334 187.661 890.286 187.351C880.103 190.418 858.159 196.66 851.852 197.096C845.544 197.532 848.248 192.844 850.389 190.446L881.331 163.765C884.928 160.501 891.333 153.183 888.183 150.021C885.034 146.859 878.634 151.009 875.827 153.48C866.792 162.036 847.482 179.616 842.518 181.485C837.553 183.355 839.016 179.908 840.368 177.952L871.486 138.122C873.82 135.494 877.448 129.364 873.29 125.867C869.132 122.369 862.79 130.061 860.138 134.344C852.152 144.834 834.581 166.727 828.184 170.373C821.788 174.02 819.882 168.49 819.729 165.269L832.242 125.057C832.736 122.521 832.779 117.029 828.997 115.347C825.215 113.665 821.842 120.185 820.628 123.655L805.01 167.413C802.849 171.8 796.969 181.783 790.739 186.612C784.509 191.441 779.876 187.163 778.338 184.42C775.805 179.409 769.678 167.942 765.439 162.163Z" fill="#718DF0" fill-opacity="0.1"/>
<path d="M651.689 302.784C647.45 297.006 642.99 297.012 641.289 297.737C638.166 301.862 640.96 307.841 641.745 310.04C646.5 317.317 655.989 332.78 655.9 336.413C655.788 340.955 660.079 354.359 665.641 361.317C670.09 366.884 679.608 371.075 683.811 372.474C684.53 372.42 687.258 373.269 692.425 377.103C697.591 380.936 704.177 379.313 706.825 378.023C712.014 375.582 722.941 369.687 725.133 365.627C727.325 361.567 735.171 353.354 738.82 349.756C749.914 346.933 773.46 340.05 778.891 335.096C784.322 330.141 779.584 328.282 776.536 327.972C766.353 331.039 744.409 337.281 738.101 337.717C731.793 338.153 734.498 333.465 736.639 331.067L767.581 304.386C771.177 301.122 777.582 293.803 774.433 290.642C771.284 287.48 764.883 291.63 762.077 294.1C753.042 302.657 733.732 320.237 728.767 322.106C723.803 323.976 725.266 320.529 726.617 318.573L757.736 278.743C760.069 276.115 763.697 269.985 759.54 266.488C755.382 262.99 749.039 270.682 746.388 274.965C738.402 285.455 720.83 307.348 714.434 310.994C708.038 314.641 706.132 309.111 705.979 305.89L718.492 265.677C718.986 263.142 719.028 257.65 715.246 255.968C711.464 254.286 708.092 260.806 706.878 264.276L691.259 308.034C689.098 312.421 683.219 322.404 676.989 327.233C670.759 332.062 666.126 327.784 664.588 325.041C662.054 320.03 655.928 308.563 651.689 302.784Z" fill="#718DF0" fill-opacity="0.1"/>
<path d="M658.448 483.53C654.209 477.751 649.748 477.757 648.048 478.483C644.924 482.608 647.718 488.587 648.504 490.786C653.259 498.063 662.747 513.526 662.658 517.159C662.547 521.701 666.838 535.104 672.4 542.063C676.849 547.63 686.367 551.82 690.57 553.22C691.288 553.165 694.017 554.015 699.183 557.848C704.35 561.682 710.936 560.059 713.583 558.768C718.772 556.328 729.699 550.433 731.891 546.372C734.083 542.312 741.93 534.1 745.579 530.501C756.673 527.679 780.219 520.796 785.65 515.841C791.081 510.887 786.343 509.028 783.295 508.717C773.111 511.784 751.168 518.027 744.86 518.463C738.552 518.899 741.257 514.211 743.397 511.812L774.34 485.132C777.936 481.868 784.341 474.549 781.192 471.387C778.042 468.226 771.642 472.376 768.835 474.846C759.801 483.402 740.49 500.982 735.526 502.852C730.562 504.721 732.024 501.275 733.376 499.318L764.494 459.489C766.828 456.861 770.456 450.731 766.298 447.234C762.14 443.736 755.798 451.428 753.146 455.711C745.16 466.201 727.589 488.093 721.193 491.74C714.796 495.387 712.891 489.857 712.737 486.636L725.25 446.423C725.744 443.887 725.787 438.395 722.005 436.714C718.223 435.032 714.85 441.552 713.636 445.022L698.018 488.779C695.857 493.167 689.977 503.149 683.747 507.979C677.518 512.808 672.884 508.53 671.346 505.787C668.813 500.776 662.686 489.309 658.448 483.53Z" fill="#718DF0" fill-opacity="0.1"/>
<path d="M544.692 624.151C540.453 618.372 535.993 618.378 534.292 619.104C531.169 623.229 533.963 629.208 534.748 631.407C539.504 638.684 548.992 654.147 548.903 657.78C548.791 662.322 553.082 675.725 558.644 682.684C563.093 688.251 572.611 692.441 576.814 693.841C577.533 693.786 580.261 694.636 585.428 698.469C590.594 702.303 597.18 700.68 599.828 699.389C605.017 696.949 615.944 691.054 618.136 686.993C620.328 682.933 628.174 674.721 631.823 671.122C642.917 668.3 666.463 661.417 671.894 656.462C677.325 651.508 672.587 649.649 669.539 649.338C659.356 652.405 637.412 658.648 631.104 659.084C624.797 659.52 627.501 654.832 629.642 652.433L660.584 625.753C664.18 622.489 670.585 615.17 667.436 612.008C664.287 608.847 657.886 612.997 655.08 615.467C646.045 624.023 626.735 641.603 621.77 643.473C616.806 645.342 618.269 641.896 619.62 639.939L650.739 600.11C653.072 597.482 656.701 591.352 652.543 587.855C648.385 584.357 642.042 592.049 639.391 596.332C631.405 606.822 613.833 628.714 607.437 632.361C601.041 636.008 599.135 630.478 598.982 627.257L611.495 587.044C611.989 584.508 612.031 579.016 608.249 577.335C604.468 575.653 601.095 582.173 599.881 585.643L584.262 629.4C582.101 633.788 576.222 643.77 569.992 648.6C563.762 653.429 559.129 649.151 557.591 646.408C555.057 641.397 548.931 629.93 544.692 624.151Z" fill="#718DF0" fill-opacity="0.1"/>
<path d="M235.184 -14.3763C230.945 -20.1549 226.485 -20.149 224.784 -19.4237C221.661 -15.2982 224.455 -9.31929 225.24 -7.12071C229.995 0.156547 239.484 15.6194 239.395 19.2527C239.283 23.7943 243.574 37.1982 249.136 44.1568C253.585 49.7238 263.103 53.914 267.306 55.3133C268.025 55.259 270.753 56.1086 275.92 59.942C281.086 63.7753 287.672 62.1525 290.32 60.8619C295.509 58.4217 306.436 52.5264 308.628 48.4662C310.82 44.4059 318.666 36.1936 322.315 32.595C333.409 29.7727 356.955 22.8894 362.386 17.9351C367.817 12.9807 363.079 11.1215 360.031 10.8111C349.848 13.878 327.904 20.1206 321.596 20.5565C315.288 20.9924 317.993 16.3045 320.134 13.906L351.076 -12.7745C354.672 -16.0386 361.077 -23.3572 357.928 -26.5189C354.779 -29.6806 348.378 -25.5305 345.572 -23.0602C336.537 -14.5039 317.227 3.07614 312.262 4.9455C307.298 6.81486 308.761 3.36873 310.112 1.41201L341.231 -38.4177C343.564 -41.0454 347.193 -47.1752 343.035 -50.6727C338.877 -54.1703 332.534 -46.4787 329.883 -42.1957C321.897 -31.7053 304.325 -9.81293 297.929 -6.16621C291.533 -2.51949 289.627 -8.04961 289.474 -11.2705L301.987 -51.4832C302.481 -54.019 302.523 -59.511 298.741 -61.1928C294.959 -62.8746 291.587 -56.3546 290.373 -52.8843L274.754 -9.12695C272.593 -4.73938 266.714 5.24307 260.484 10.0723C254.254 14.9015 249.621 10.6235 248.083 7.88078C245.549 2.86951 239.423 -8.59769 235.184 -14.3763Z" fill="#718DF0" fill-opacity="0.1"/>
<path d="M121.429 126.246C117.19 120.467 112.729 120.473 111.029 121.199C107.905 125.324 110.699 131.303 111.485 133.502C116.24 140.779 125.728 156.242 125.639 159.875C125.528 164.417 129.819 177.82 135.381 184.779C139.83 190.346 149.348 194.536 153.551 195.936C154.269 195.881 156.997 196.731 162.164 200.564C167.331 204.398 173.917 202.775 176.564 201.484C181.753 199.044 192.68 193.149 194.872 189.088C197.064 185.028 204.911 176.816 208.56 173.217C219.654 170.395 243.2 163.512 248.631 158.557C254.062 153.603 249.324 151.744 246.275 151.433C236.092 154.5 214.149 160.743 207.841 161.179C201.533 161.615 204.238 156.927 206.378 154.528L237.321 127.848C240.917 124.584 247.322 117.265 244.173 114.103C241.023 110.942 234.623 115.092 231.816 117.562C222.781 126.118 203.471 143.698 198.507 145.568C193.543 147.437 195.005 143.991 196.357 142.034L227.475 102.205C229.809 99.5768 233.437 93.447 229.279 89.9495C225.121 86.4519 218.779 94.1435 216.127 98.4265C208.141 108.917 190.57 130.809 184.173 134.456C177.777 138.103 175.872 132.573 175.718 129.352L188.231 89.139C188.725 86.6032 188.768 81.1112 184.986 79.4294C181.204 77.7476 177.831 84.2677 176.617 87.7379L160.999 131.495C158.838 135.883 152.958 145.865 146.728 150.695C140.499 155.524 135.865 151.246 134.327 148.503C131.794 143.492 125.667 132.025 121.429 126.246Z" fill="#718DF0" fill-opacity="0.1"/>
<path d="M128.19 306.992C123.951 301.213 119.49 301.219 117.79 301.944C114.666 306.07 117.46 312.049 118.246 314.247C123.001 321.524 132.489 336.987 132.4 340.621C132.289 345.162 136.58 358.566 142.142 365.525C146.591 371.092 156.109 375.282 160.312 376.681C161.03 376.627 163.759 377.477 168.925 381.31C174.092 385.143 180.678 383.52 183.325 382.23C188.515 379.79 199.441 373.894 201.633 369.834C203.825 365.774 211.672 357.562 215.321 353.963C226.415 351.141 249.961 344.257 255.392 339.303C260.823 334.349 256.085 332.489 253.037 332.179C242.853 335.246 220.91 341.489 214.602 341.924C208.294 342.36 210.999 337.672 213.139 335.274L244.082 308.593C247.678 305.329 254.083 298.011 250.934 294.849C247.784 291.687 241.384 295.837 238.577 298.308C229.543 306.864 210.232 324.444 205.268 326.313C200.304 328.183 201.766 324.737 203.118 322.78L234.236 282.95C236.57 280.323 240.198 274.193 236.04 270.695C231.882 267.198 225.54 274.889 222.889 279.172C214.902 289.663 197.331 311.555 190.935 315.202C184.538 318.848 182.633 313.318 182.48 310.097L194.992 269.885C195.486 267.349 195.529 261.857 191.747 260.175C187.965 258.493 184.592 265.013 183.378 268.484L167.76 312.241C165.599 316.629 159.719 326.611 153.489 331.44C147.26 336.269 142.626 331.991 141.088 329.249C138.555 324.237 132.428 312.77 128.19 306.992Z" fill="#718DF0" fill-opacity="0.1"/>
<path d="M14.4367 447.613C10.198 441.834 5.73737 441.84 4.03693 442.565C0.913384 446.691 3.70752 452.67 4.49286 454.868C9.24815 462.145 18.7364 477.608 18.6473 481.242C18.5358 485.783 22.8271 499.187 28.3887 506.146C32.838 511.713 42.356 515.903 46.5589 517.302C47.2773 517.248 50.0057 518.098 55.1722 521.931C60.3388 525.764 66.925 524.141 69.5723 522.851C74.7616 520.411 85.6882 514.515 87.8804 510.455C90.0725 506.395 97.9188 498.183 101.568 494.584C112.662 491.762 136.208 484.878 141.639 479.924C147.07 474.97 142.332 473.11 139.284 472.8C129.1 475.867 107.157 482.11 100.849 482.545C94.5411 482.981 97.2457 478.293 99.3865 475.895L130.329 449.214C133.925 445.95 140.33 438.632 137.181 435.47C134.031 432.308 127.631 436.458 124.824 438.929C115.79 447.485 96.4793 465.065 91.515 466.934C86.5508 468.804 88.0132 465.358 89.365 463.401L120.483 423.571C122.817 420.944 126.445 414.814 122.287 411.316C118.129 407.819 111.787 415.51 109.136 419.793C101.149 430.284 83.578 452.176 77.1816 455.823C70.7853 459.469 68.8798 453.939 68.7266 450.718L81.2393 410.506C81.7334 407.97 81.776 402.478 77.9941 400.796C74.2121 399.114 70.8392 405.634 69.6255 409.105L54.0069 452.862C51.8459 457.25 45.9663 467.232 39.7365 472.061C33.5067 476.89 28.8734 472.612 27.3354 469.87C24.802 464.858 18.6755 453.391 14.4367 447.613Z" fill="#718DF0" fill-opacity="0.1"/>
<path d="M588.688 103.317C584.449 97.5387 579.988 97.5446 578.288 98.2699C575.164 102.395 577.958 108.374 578.744 110.573C583.499 117.85 592.987 133.313 592.898 136.946C592.787 141.488 597.078 154.892 602.64 161.85C607.089 167.417 616.607 171.608 620.81 173.007C621.528 172.953 624.257 173.802 629.423 177.636C634.59 181.469 641.176 179.846 643.823 178.556C649.013 176.115 659.939 170.22 662.131 166.16C664.323 162.1 672.17 153.887 675.819 150.289C686.913 147.466 710.459 140.583 715.89 135.629C721.321 130.674 716.583 128.815 713.535 128.505C703.351 131.572 681.408 137.814 675.1 138.25C668.792 138.686 671.497 133.998 673.637 131.6L704.58 104.919C708.176 101.655 714.581 94.3364 711.432 91.1747C708.282 88.013 701.882 92.1631 699.075 94.6334C690.041 103.19 670.73 120.77 665.766 122.639C660.802 124.508 662.264 121.062 663.616 119.106L694.734 79.2759C697.068 76.6482 700.696 70.5184 696.538 67.0209C692.38 63.5233 686.038 71.2149 683.387 75.4979C675.4 85.9883 657.829 107.881 651.433 111.527C645.036 115.174 643.131 109.644 642.978 106.423L655.49 66.2104C655.984 63.6746 656.027 58.1826 652.245 56.5008C648.463 54.819 645.09 61.339 643.876 64.8093L628.258 108.567C626.097 112.954 620.217 122.937 613.987 127.766C607.758 132.595 603.124 128.317 601.586 125.574C599.053 120.563 592.926 109.096 588.688 103.317Z" fill="#718DF0" fill-opacity="0.1"/>
<path d="M474.937 243.938C470.698 238.16 466.238 238.166 464.537 238.891C461.414 243.016 464.208 248.995 464.993 251.194C469.749 258.471 479.237 273.934 479.148 277.567C479.036 282.109 483.328 295.513 488.889 302.471C493.339 308.038 502.857 312.229 507.059 313.628C507.778 313.573 510.506 314.423 515.673 318.257C520.839 322.09 527.426 320.467 530.073 319.176C535.262 316.736 546.189 310.841 548.381 306.781C550.573 302.72 558.419 294.508 562.068 290.91C573.163 288.087 596.708 281.204 602.139 276.25C607.571 271.295 602.832 269.436 599.784 269.126C589.601 272.192 567.657 278.435 561.349 278.871C555.042 279.307 557.746 274.619 559.887 272.221L590.829 245.54C594.425 242.276 600.83 234.957 597.681 231.796C594.532 228.634 588.131 232.784 585.325 235.254C576.29 243.811 556.98 261.391 552.016 263.26C547.051 265.129 548.514 261.683 549.866 259.727L580.984 219.897C583.318 217.269 586.946 211.139 582.788 207.642C578.63 204.144 572.288 211.836 569.636 216.119C561.65 226.609 544.078 248.502 537.682 252.148C531.286 255.795 529.38 250.265 529.227 247.044L541.74 206.831C542.234 204.296 542.277 198.803 538.495 197.122C534.713 195.44 531.34 201.96 530.126 205.43L514.507 249.188C512.346 253.575 506.467 263.558 500.237 268.387C494.007 273.216 489.374 268.938 487.836 266.195C485.303 261.184 479.176 249.717 474.937 243.938Z" fill="#718DF0" fill-opacity="0.1"/>
<path d="M481.693 424.684C477.455 418.905 472.994 418.911 471.294 419.637C468.17 423.762 470.964 429.741 471.749 431.94C476.505 439.217 485.993 454.68 485.904 458.313C485.792 462.855 490.084 476.258 495.645 483.217C500.095 488.784 509.613 492.974 513.815 494.374C514.534 494.319 517.262 495.169 522.429 499.002C527.595 502.836 534.182 501.213 536.829 499.922C542.018 497.482 552.945 491.587 555.137 487.526C557.329 483.466 565.175 475.254 568.825 471.655C579.919 468.833 603.464 461.95 608.896 456.995C614.327 452.041 609.588 450.182 606.54 449.871C596.357 452.938 574.413 459.181 568.106 459.617C561.798 460.053 564.502 455.365 566.643 452.966L597.585 426.286C601.181 423.022 607.586 415.703 604.437 412.541C601.288 409.38 594.888 413.53 592.081 416C583.046 424.556 563.736 442.136 558.772 444.006C553.807 445.875 555.27 442.429 556.622 440.472L587.74 400.643C590.074 398.015 593.702 391.885 589.544 388.387C585.386 384.89 579.044 392.582 576.392 396.865C568.406 407.355 550.835 429.247 544.438 432.894C538.042 436.541 536.136 431.011 535.983 427.79L548.496 387.577C548.99 385.041 549.033 379.549 545.251 377.867C541.469 376.186 538.096 382.706 536.882 386.176L521.264 429.933C519.102 434.321 513.223 444.303 506.993 449.133C500.763 453.962 496.13 449.684 494.592 446.941C492.059 441.93 485.932 430.463 481.693 424.684Z" fill="#718DF0" fill-opacity="0.1"/>
<path d="M367.94 565.305C363.702 559.526 359.241 559.532 357.54 560.258C354.417 564.383 357.211 570.362 357.996 572.561C362.752 579.838 372.24 595.301 372.151 598.934C372.039 603.476 376.331 616.879 381.892 623.838C386.342 629.405 395.86 633.595 400.062 634.995C400.781 634.94 403.509 635.79 408.676 639.623C413.842 643.457 420.429 641.834 423.076 640.543C428.265 638.103 439.192 632.208 441.384 628.147C443.576 624.087 451.422 615.875 455.072 612.276C466.166 609.454 489.711 602.571 495.142 597.616C500.574 592.662 495.835 590.803 492.787 590.492C482.604 593.559 460.66 599.802 454.352 600.238C448.045 600.674 450.749 595.986 452.89 593.587L483.832 566.907C487.428 563.643 493.833 556.324 490.684 553.162C487.535 550.001 481.135 554.151 478.328 556.621C469.293 565.177 449.983 582.757 445.019 584.627C440.054 586.496 441.517 583.05 442.869 581.093L473.987 541.264C476.321 538.636 479.949 532.506 475.791 529.008C471.633 525.511 465.291 533.203 462.639 537.486C454.653 547.976 437.082 569.868 430.685 573.515C424.289 577.162 422.383 571.632 422.23 568.411L434.743 528.198C435.237 525.662 435.28 520.17 431.498 518.488C427.716 516.807 424.343 523.327 423.129 526.797L407.51 570.554C405.349 574.942 399.47 584.924 393.24 589.754C387.01 594.583 382.377 590.305 380.839 587.562C378.306 582.551 372.179 571.084 367.94 565.305Z" fill="#718DF0" fill-opacity="0.1"/>
<path d="M942.191 221.007C937.952 215.228 933.492 215.234 931.791 215.96C928.668 220.085 931.462 226.064 932.247 228.263C937.003 235.54 946.491 251.003 946.402 254.636C946.29 259.178 950.581 272.581 956.143 279.54C960.592 285.107 970.11 289.297 974.313 290.697C975.032 290.642 977.76 291.492 982.927 295.325C988.093 299.159 994.679 297.536 997.327 296.245C1002.52 293.805 1013.44 287.91 1015.63 283.849C1017.83 279.789 1025.67 271.577 1029.32 267.978C1040.42 265.156 1063.96 258.273 1069.39 253.318C1074.82 248.364 1070.09 246.505 1067.04 246.194C1056.85 249.261 1034.91 255.504 1028.6 255.94C1022.3 256.376 1025 251.688 1027.14 249.289L1058.08 222.609C1061.68 219.345 1068.08 212.026 1064.94 208.864C1061.79 205.703 1055.39 209.853 1052.58 212.323C1043.54 220.879 1024.23 238.459 1019.27 240.329C1014.31 242.198 1015.77 238.752 1017.12 236.795L1048.24 196.966C1050.57 194.338 1054.2 188.208 1050.04 184.711C1045.88 181.213 1039.54 188.905 1036.89 193.188C1028.9 203.678 1011.33 225.57 1004.94 229.217C998.54 232.864 996.634 227.334 996.481 224.113L1008.99 183.9C1009.49 181.364 1009.53 175.872 1005.75 174.19C1001.97 172.509 998.594 179.029 997.38 182.499L981.761 226.256C979.6 230.644 973.721 240.626 967.491 245.456C961.261 250.285 956.628 246.007 955.09 243.264C952.556 238.253 946.43 226.786 942.191 221.007Z" fill="#718DF0" fill-opacity="0.1"/>
<path d="M828.441 361.63C824.202 355.852 819.741 355.858 818.041 356.583C814.917 360.709 817.712 366.687 818.497 368.886C823.252 376.163 832.74 391.626 832.651 395.259C832.54 399.801 836.831 413.205 842.393 420.164C846.842 425.731 856.36 429.921 860.563 431.32C861.281 431.266 864.01 432.115 869.176 435.949C874.343 439.782 880.929 438.159 883.576 436.869C888.766 434.429 899.692 428.533 901.884 424.473C904.076 420.413 911.923 412.2 915.572 408.602C926.666 405.779 950.212 398.896 955.643 393.942C961.074 388.987 956.336 387.128 953.288 386.818C943.104 389.885 921.161 396.127 914.853 396.563C908.545 396.999 911.25 392.311 913.39 389.913L944.333 363.232C947.929 359.968 954.334 352.65 951.185 349.488C948.035 346.326 941.635 350.476 938.828 352.947C929.794 361.503 910.483 379.083 905.519 380.952C900.555 382.822 902.017 379.376 903.369 377.419L934.487 337.589C936.821 334.961 940.449 328.832 936.291 325.334C932.133 321.836 925.791 329.528 923.14 333.811C915.153 344.301 897.582 366.194 891.186 369.841C884.789 373.487 882.884 367.957 882.731 364.736L895.243 324.524C895.737 321.988 895.78 316.496 891.998 314.814C888.216 313.132 884.843 319.652 883.63 323.122L868.011 366.88C865.85 371.267 859.97 381.25 853.74 386.079C847.511 390.908 842.877 386.63 841.339 383.888C838.806 378.876 832.68 367.409 828.441 361.63Z" fill="#718DF0" fill-opacity="0.1"/>
<path d="M835.199 542.376C830.96 536.597 826.5 536.603 824.799 537.329C821.676 541.454 824.47 547.433 825.255 549.632C830.011 556.909 839.499 572.372 839.41 576.005C839.298 580.547 843.59 593.951 849.151 600.909C853.601 606.476 863.119 610.666 867.321 612.066C868.04 612.011 870.768 612.861 875.935 616.694C881.101 620.528 887.688 618.905 890.335 617.614C895.524 615.174 906.451 609.279 908.643 605.219C910.835 601.158 918.681 592.946 922.331 589.347C933.425 586.525 956.97 579.642 962.401 574.687C967.833 569.733 963.094 567.874 960.046 567.564C949.863 570.63 927.919 576.873 921.611 577.309C915.304 577.745 918.008 573.057 920.149 570.658L951.091 543.978C954.687 540.714 961.092 533.395 957.943 530.234C954.794 527.072 948.393 531.222 945.587 533.692C936.552 542.249 917.242 559.829 912.278 561.698C907.313 563.567 908.776 560.121 910.128 558.164L941.246 518.335C943.58 515.707 947.208 509.577 943.05 506.08C938.892 502.582 932.55 510.274 929.898 514.557C921.912 525.047 904.341 546.94 897.944 550.586C891.548 554.233 889.642 548.703 889.489 545.482L902.002 505.269C902.496 502.733 902.539 497.241 898.757 495.56C894.975 493.878 891.602 500.398 890.388 503.868L874.769 547.625C872.608 552.013 866.729 561.996 860.499 566.825C854.269 571.654 849.636 567.376 848.098 564.633C845.565 559.622 839.438 548.155 835.199 542.376Z" fill="#718DF0" fill-opacity="0.1"/>
<path d="M721.444 682.998C717.205 677.22 712.745 677.226 711.044 677.951C707.921 682.077 710.715 688.055 711.5 690.254C716.255 697.531 725.744 712.994 725.654 716.627C725.543 721.169 729.834 734.573 735.396 741.532C739.845 747.099 749.363 751.289 753.566 752.688C754.284 752.634 757.013 753.483 762.179 757.317C767.346 761.15 773.932 759.527 776.579 758.237C781.769 755.797 792.695 749.901 794.888 745.841C797.08 741.781 804.926 733.568 808.575 729.97C819.669 727.147 843.215 720.264 848.646 715.31C854.077 710.355 849.339 708.496 846.291 708.186C836.107 711.253 814.164 717.495 807.856 717.931C801.548 718.367 804.253 713.679 806.394 711.281L837.336 684.6C840.932 681.336 847.337 674.018 844.188 670.856C841.039 667.694 834.638 671.844 831.831 674.315C822.797 682.871 803.486 700.451 798.522 702.32C793.558 704.19 795.02 700.743 796.372 698.787L827.49 658.957C829.824 656.329 833.452 650.2 829.294 646.702C825.137 643.204 818.794 650.896 816.143 655.179C808.157 665.669 790.585 687.562 784.189 691.209C777.792 694.855 775.887 689.325 775.734 686.104L788.246 645.892C788.74 643.356 788.783 637.864 785.001 636.182C781.219 634.5 777.846 641.02 776.633 644.49L761.014 688.248C758.853 692.635 752.973 702.618 746.744 707.447C740.514 712.276 735.881 707.998 734.343 705.256C731.809 700.244 725.683 688.777 721.444 682.998Z" fill="#718DF0" fill-opacity="0.1"/>
</g>
<defs>
<clipPath id="clip0_674_731">
<rect width="1031" height="650" rx="10" fill="white"/>
</clipPath>
</defs>
</svg>
