<svg width="252" height="49" viewBox="0 0 252 49" fill="none" xmlns="http://www.w3.org/2000/svg">
<path d="M9.3512 35.6278C9.51488 38.2731 12.3239 39.5721 15.1383 39.5721C18.0001 39.5721 20.9729 38.1675 20.9729 35.4113L21.5167 8.86254H28.439C30.8679 8.86254 31.6283 6.64487 31.6283 4.59088C31.6283 2.58969 31.2481 0.319214 28.4918 0.319214H2.91994C0.374893 0.319214 0 2.91706 0 4.86545C0.158406 7.13592 0.644182 9.13183 3.94429 8.86254H9.62049L9.3512 35.6278Z" fill="#100C00"/>
<path d="M62.5268 10.7398C62.7062 7.59775 59.5061 7.36051 56.8384 7.18691C54.2922 7.12326 52.2784 7.53989 51.746 9.91234C49.848 8.01438 46.2949 7.12326 43.685 7.12326C32.0131 7.30264 27.2158 14.3506 27.2158 23.6552C27.5109 33.9031 33.8533 39.5912 42.5624 39.2961C45.5831 39.1225 48.8989 38.7058 51.2136 36.5128C51.2715 38.4107 52.3941 39.6548 56.1324 39.6548C58.9737 39.6548 62.0523 39.3539 61.8787 36.8657L62.5268 10.7398ZM44.8713 29.6384C41.3182 29.6384 39.7732 27.862 39.5417 23.3601C39.478 21.1092 39.9525 19.5063 40.9016 18.4995C41.9085 17.4926 43.2105 16.9603 44.8713 16.9024C48.3665 16.8445 50.0273 19.6278 50.0273 23.1229C50.0273 27.3296 48.2508 29.3433 44.8713 29.6384Z" fill="#100C00"/>
<rect x="63.249" y="15.9746" width="8.47126" height="16.269" rx="4.23563" transform="rotate(-46.9957 63.249 15.9746)" fill="#FEC705"/>
<path d="M73.6153 20.3172C72.7446 20.6434 70.8778 21.065 69.5144 20.5809C70.8983 21.605 73.0107 22.0547 74.2952 21.3187C75.5798 20.5828 79.0053 17.8423 79.0053 17.8423L78.3394 17.263C78.3394 17.263 74.486 19.9909 73.6153 20.3172Z" fill="#F4BF05"/>
<path d="M76.4256 26.6588C74.1806 24.9959 70.6963 21.3204 70.6963 21.3204C70.6963 21.3204 73.6817 22.1505 76.0099 20.4044C78.3381 18.6583 86.8193 9.92778 89.3137 7.68261C91.8082 5.43744 95.2173 6.60179 96.2982 8.5141C97.3792 10.4264 96.9634 12.0062 95.2173 13.7525C93.4712 15.4987 84.99 23.9799 82.6618 25.8922C80.3336 27.8046 78.6706 28.3217 76.4256 26.6588Z" fill="#FEE103" stroke="#FEE103" stroke-width="2.52412" stroke-linecap="round"/>
<path d="M72.455 37.0167C71.1649 38.7043 68.751 39.0266 67.0634 37.7366C65.3757 36.4465 65.0534 34.0326 66.3435 32.3449L72.4286 24.3844C74.1216 26.9118 75.4869 27.9002 78.5401 29.0562L72.455 37.0167Z" fill="#100C00"/>
<path d="M91.2735 32.1406C92.6076 33.7921 92.3539 36.2117 90.7062 37.5505C89.0553 38.8919 86.6294 38.641 85.288 36.99L78.9728 29.2178C81.8258 28.162 83.3576 27.3147 85.1949 24.6161L91.2735 32.1406Z" fill="#100C00"/>
<path d="M100.344 36.9642C100.344 38.8634 102.505 39.0828 104.623 39.0828C106.915 39.0828 109.202 38.779 109.202 36.3607L109.595 9.56581C109.81 7.14755 107.303 6.84369 105.358 6.71286C103.716 6.58625 100.69 6.71286 100.344 9.21974V36.9642Z" fill="#100C00"/>
<path d="M149.201 10.7376C149.381 7.59547 146.181 7.35822 143.513 7.18462C140.967 7.12097 138.953 7.53761 138.421 9.91012C136.523 8.01211 132.97 7.12097 130.36 7.12097C118.689 7.30036 113.892 14.3484 113.892 23.6533C114.187 33.9014 120.529 39.5896 129.238 39.2945C132.258 39.1209 135.574 38.7043 137.889 36.5111C137.947 38.4091 139.069 39.6533 142.807 39.6533C145.648 39.6533 148.727 39.3524 148.553 36.8641L149.201 10.7376ZM131.547 29.6367C127.994 29.6367 126.449 27.8602 126.217 23.3582C126.153 21.1072 126.628 19.5043 127.577 18.4974C128.584 17.4906 129.886 16.9582 131.547 16.9003C135.042 16.8425 136.702 19.6258 136.702 23.1209C136.702 27.3278 134.926 29.3415 131.547 29.6367Z" fill="#100C00"/>
<path d="M153.366 36.9217C153.493 39.1247 155.7 39.2555 157.772 39.2555C158.941 39.2555 160.798 38.9516 161.706 37.5674C162.613 38.6056 164.386 39.2091 166.242 39.3399C173.371 39.5551 178.342 35.0183 178.819 27.4132C178.6 20.2851 175.578 14.71 166.719 15.0561C165.466 15.0983 163.52 15.571 162.482 16.4361C162.482 15.1827 162.571 11.2536 162.571 10.0001C162.917 6.97415 160.583 6.84332 158.249 6.71249C156.607 6.58588 153.581 6.80111 153.451 9.21937L153.366 36.9217ZM161.879 25.9446C161.879 23.3955 163.259 22.3573 165.723 22.2264C168.146 22.2264 169.699 24.1298 169.657 27.2402C169.657 30.2662 167.454 31.9079 165.812 31.9079C163.778 31.8657 162.094 31.0849 161.879 28.1898V25.9446Z" fill="#100C00"/>
<path d="M204.097 32.8174C204.4 28.884 202.67 26.854 198.825 25.4276C197.099 24.7776 195.065 24.2163 193.119 23.7437C190.743 23.2668 191.651 21.9711 193.466 22.1019C194.981 22.2286 196.707 22.7055 197.184 23.2668C198.133 24.2163 200.21 23.8703 201.809 22.3594C203.32 20.8485 203.451 19.6373 202.586 18.5569C202.109 18.0378 201.547 17.6073 200.813 17.219C198.783 16.05 195.846 15.3578 193.119 15.3578C186.726 15.3578 181.974 17.9534 181.974 22.1441C181.974 24.0011 182.619 26.0775 184.995 27.504C186.768 28.538 191.178 30.1375 192.993 30.6144C195.28 31.1757 194.419 32.3869 192.904 32.2561C190.79 32.083 188.629 31.0448 187.549 30.1797C186.164 29.1457 183.615 30.1797 182.577 31.6948C181.758 32.8596 181.193 34.3283 182.666 35.7969C184.911 38.0464 189.406 39.169 193.727 39.169C198.568 39.169 203.063 37.5273 204.097 32.8174Z" fill="#100C00"/>
<circle cx="130.24" cy="23.8295" r="10.7151" transform="rotate(-37.3229 130.24 23.8295)" fill="white"/>
<rect x="134.501" y="32.9919" width="4.22964" height="3.94767" transform="rotate(-37.3229 134.501 32.9919)" fill="white"/>
<rect x="134.642" y="36.6691" width="8.32852" height="9.58719" rx="2.32686" transform="rotate(-37.3229 134.642 36.6691)" fill="white"/>
<g filter="url(#filter0_i_619_1034)">
<path d="M126.33 17.457C129.174 15.7868 131.791 15.4056 134.693 18.292" stroke="#FEC705" stroke-width="2.32686" stroke-linecap="round"/>
</g>
<path d="M213.431 12.6362C213.431 17.7432 213.431 28.9763 213.431 34.5924C213.431 40.2085 221.782 39.1873 221.782 35.2726C221.782 31.358 222.122 12.976 222.122 12.976C222.122 9.74216 228.087 10.0826 228.087 12.976C228.087 15.8695 227.746 23.869 228.087 31.1878C228.428 38.5065 234.904 40.5489 240.528 40.5489C246.152 40.5489 250.754 36.2939 250.924 32.0388C251.095 27.7837 250.924 19.614 250.924 19.614C250.924 15.5291 242.573 15.5291 242.573 19.614V29.996C242.573 33.4004 236.268 32.7196 236.268 29.996C236.268 27.2725 236.609 19.103 236.268 11.9554C235.927 4.80773 227.746 1.74231 222.634 2.93461C217.521 4.12691 213.431 7.52922 213.431 12.6362Z" fill="url(#paint0_linear_619_1034)" stroke="url(#paint1_linear_619_1034)"/>
<path d="M231.771 37.5601C238.009 38.0822 243.739 32.2372 244.196 28.4224" stroke="#F5D504" stroke-width="2" stroke-linecap="round"/>
<path d="M242.584 30.094C242.584 34.0368 238.328 38.1597 231.18 37.8083C231.18 37.8083 233.903 40.5511 240.031 40.5511C246.158 40.5511 250.924 36.6083 250.924 30.6082C250.924 24.6082 251.094 22.8942 250.924 19.1225C250.754 15.3508 242.584 15.3507 242.584 19.1225V30.094Z" fill="url(#paint2_linear_619_1034)" stroke="url(#paint3_linear_619_1034)"/>
<circle cx="247.006" cy="9.33976" r="3.9936" fill="#100C00"/>
<defs>
<filter id="filter0_i_619_1034" x="125.166" y="14.9981" width="10.6904" height="9.11111" filterUnits="userSpaceOnUse" color-interpolation-filters="sRGB">
<feFlood flood-opacity="0" result="BackgroundImageFix"/>
<feBlend mode="normal" in="SourceGraphic" in2="BackgroundImageFix" result="shape"/>
<feColorMatrix in="SourceAlpha" type="matrix" values="0 0 0 0 0 0 0 0 0 0 0 0 0 0 0 0 0 0 127 0" result="hardAlpha"/>
<feOffset dy="4.65372"/>
<feGaussianBlur stdDeviation="2.90857"/>
<feComposite in2="hardAlpha" operator="arithmetic" k2="-1" k3="1"/>
<feColorMatrix type="matrix" values="0 0 0 0 0 0 0 0 0 0 0 0 0 0 0 0 0 0 0.1 0"/>
<feBlend mode="normal" in2="shape" result="effect1_innerShadow_619_1034"/>
</filter>
<linearGradient id="paint0_linear_619_1034" x1="232.215" y1="4.11559" x2="232.215" y2="40.5489" gradientUnits="userSpaceOnUse">
<stop stop-color="#FEC705"/>
<stop offset="1" stop-color="#FEE103"/>
</linearGradient>
<linearGradient id="paint1_linear_619_1034" x1="227.044" y1="2.68372" x2="220.683" y2="35.3721" gradientUnits="userSpaceOnUse">
<stop stop-color="#FEC705"/>
<stop offset="1" stop-color="#FEE103"/>
</linearGradient>
<linearGradient id="paint2_linear_619_1034" x1="246.524" y1="16.2937" x2="234.727" y2="43.5968" gradientUnits="userSpaceOnUse">
<stop stop-color="#FEC705"/>
<stop offset="1" stop-color="#FEE103"/>
</linearGradient>
<linearGradient id="paint3_linear_619_1034" x1="251" y1="14.3786" x2="231.221" y2="42.0169" gradientUnits="userSpaceOnUse">
<stop stop-color="#FEC705"/>
<stop offset="1" stop-color="#FEE103"/>
</linearGradient>
</defs>
</svg>
